<svg xmlns="http://www.w3.org/2000/svg" xmlns:xlink="http://www.w3.org/1999/xlink" width="457" height="82" viewBox="0 0 457 82">
    <defs>
        <path id="prefix__a" d="M0 80.434L455.528 80.434 455.528 0 0 0z"/>
    </defs>
    <g fill="none" fill-rule="evenodd">
        <path fill="#231F20" d="M128.747 34.93l-2.219-5.122-2.285 5.122h4.504zm.372.812h-5.259l-.627 1.449c-.205.482-.304.881-.304 1.196 0 .417.165.724.502.921.198.118.687.206 1.46.264v.405h-4.95v-.405c.532-.08.973-.3 1.317-.66.345-.364.768-1.115 1.275-2.247l5.323-11.87h.21l5.367 12.198c.514 1.156.934 1.884 1.263 2.184.251.226.6.358 1.056.395v.405h-7.203v-.405h.298c.576 0 .983-.08 1.215-.241.164-.117.243-.286.245-.507 0-.13-.023-.266-.066-.405-.015-.066-.124-.34-.33-.821l-.792-1.856zM144.878 29.719v8.031c0 .781.073 1.273.219 1.471.146.19.443.312.888.362v.394h-4.182v-1.372c-.49.586-.982 1.013-1.47 1.283-.491.266-1.042.396-1.648.396-.578 0-1.095-.175-1.55-.526-.444-.358-.744-.776-.898-1.25-.154-.477-.23-1.306-.23-2.491v-4.071c0-.775-.076-1.256-.22-1.447-.14-.19-.435-.315-.889-.373v-.407h4.18v7.01c0 .732.036 1.204.102 1.417.073.212.184.373.33.482.153.11.328.164.526.164.264 0 .5-.07.715-.207.29-.19.643-.574 1.052-1.153v-5.486c0-.775-.072-1.256-.219-1.447-.14-.19-.436-.315-.89-.373v-.407h4.184zM153.17 29.435l.166 3.5h-.373c-.446-1.04-.91-1.749-1.397-2.128-.474-.381-.95-.57-1.425-.57-.298 0-.557.102-.768.305-.214.199-.32.429-.32.693 0 .197.074.387.22.57.235.3.889.816 1.965 1.547 1.078.724 1.783 1.341 2.12 1.852.344.505.516 1.073.516 1.701 0 .571-.142 1.132-.428 1.68-.287.549-.689.969-1.209 1.261-.518.293-1.094.44-1.721.44-.493 0-1.146-.154-1.967-.462-.22-.08-.372-.12-.449-.12-.244 0-.446.182-.605.547h-.364l-.173-3.685h.371c.329.965.78 1.688 1.35 2.172.58.483 1.125.724 1.639.724.35 0 .635-.106.854-.318.227-.22.341-.483.341-.79 0-.35-.11-.654-.328-.912-.222-.254-.713-.641-1.47-1.16-1.122-.777-1.848-1.369-2.176-1.779-.485-.6-.726-1.26-.726-1.985 0-.79.27-1.504.814-2.14.549-.642 1.34-.965 2.37-.965.557 0 1.095.135 1.614.405.198.111.36.166.483.166.132 0 .238-.026.32-.077.08-.06.208-.216.385-.472h.372zM158.608 25.969v3.75h2.438v1.088h-2.438v6.33c0 .591.026.976.077 1.152.058.168.158.306.295.415.138.103.267.156.386.156.474 0 .925-.363 1.35-1.088l.33.243c-.594 1.403-1.556 2.106-2.889 2.106-.653 0-1.203-.18-1.659-.537-.446-.367-.732-.772-.856-1.219-.074-.248-.108-.92-.108-2.018v-5.54h-1.34v-.385c.92-.65 1.704-1.336 2.35-2.051.65-.717 1.219-1.518 1.7-2.402h.364zM166.058 29.719v2.326c.68-1.06 1.276-1.762 1.79-2.106.513-.352 1.005-.526 1.481-.526.41 0 .736.127.979.383.248.25.372.603.372 1.064 0 .49-.121.87-.364 1.142-.232.27-.518.405-.855.405-.387 0-.725-.124-1.01-.373-.285-.249-.454-.387-.505-.416-.073-.045-.157-.066-.253-.066-.212 0-.414.08-.604.241-.299.248-.529.603-.68 1.064-.237.71-.351 1.492-.351 2.348v2.359l.011.614c0 .418.023.685.076.8.087.198.214.345.385.44.175.086.468.142.878.165v.394h-5.543v-.394c.445-.037.743-.158.9-.362.16-.214.24-.765.24-1.657v-5.671c0-.587-.03-.96-.088-1.121-.072-.204-.179-.354-.317-.45-.14-.095-.385-.16-.735-.196v-.407h4.193zM176.32 37.664V34.23c-.887.519-1.545 1.074-1.978 1.667-.285.395-.426.794-.426 1.196 0 .336.12.632.36.888.183.197.44.297.77.297.366 0 .79-.206 1.274-.614m0 .8c-1.252 1.105-2.377 1.657-3.372 1.657-.585 0-1.071-.19-1.46-.571-.387-.388-.582-.87-.582-1.449 0-.781.338-1.484 1.011-2.106.673-.629 2.14-1.462 4.403-2.5v-1.032c0-.775-.044-1.261-.132-1.46-.08-.205-.238-.378-.472-.526-.235-.153-.5-.23-.792-.23-.474 0-.867.106-1.176.317-.188.133-.283.286-.283.461 0 .154.103.344.307.57.279.316.417.618.417.91 0 .36-.135.668-.405.924-.264.247-.612.373-1.046.373-.459 0-.847-.138-1.162-.418-.31-.277-.46-.602-.46-.976 0-.526.209-1.028.626-1.503.416-.483.996-.851 1.745-1.108.747-.256 1.523-.383 2.329-.383.972 0 1.741.207 2.304.624.572.41.942.857 1.109 1.34.103.306.151 1.012.153 2.117v3.982c0 .468.02.764.055.888.038.117.093.204.165.264.073.057.158.086.251.086.19 0 .387-.133.584-.405l.33.264c-.367.54-.748.936-1.142 1.185-.39.241-.83.362-1.328.362-.587 0-1.044-.135-1.372-.407-.33-.277-.533-.695-.605-1.25M185.24 25.101V37.85c0 .723.084 1.188.253 1.392.17.198.497.31.988.34v.395h-5.543v-.394c.452-.015.788-.146 1.009-.396.146-.169.219-.614.22-1.337V27.23c0-.717-.085-1.174-.253-1.372-.168-.206-.494-.321-.976-.352v-.405h4.303zM191.478 29.719v8.13c0 .724.083 1.189.252 1.393.168.198.498.31.988.341v.394h-5.545v-.394c.452-.016.789-.148 1.01-.396.147-.168.221-.614.221-1.337v-5.991c0-.725-.083-1.185-.254-1.383-.167-.204-.492-.321-.977-.35v-.407h4.305zm-1.537-4.97c.476 0 .879.169 1.208.507.329.328.494.726.494 1.194 0 .468-.169.867-.505 1.195-.33.331-.729.495-1.197.495-.468 0-.867-.164-1.197-.495-.329-.328-.494-.727-.494-1.195 0-.468.165-.866.494-1.194.33-.338.729-.507 1.197-.507zM198.71 37.664V34.23c-.887.519-1.545 1.074-1.978 1.667-.285.395-.428.794-.428 1.196 0 .336.122.632.362.888.185.197.44.297.769.297.367 0 .79-.206 1.274-.614m0 .8c-1.252 1.105-2.376 1.657-3.372 1.657-.586 0-1.074-.19-1.46-.571-.388-.388-.58-.87-.58-1.449 0-.781.336-1.484 1.01-2.106.672-.629 2.14-1.462 4.402-2.5v-1.032c0-.775-.045-1.261-.133-1.46-.08-.205-.237-.378-.472-.526-.233-.153-.498-.23-.79-.23-.476 0-.867.106-1.176.317-.19.133-.283.286-.283.461 0 .154.103.344.307.57.277.316.417.618.417.91 0 .36-.135.668-.406.924-.264.247-.611.373-1.046.373-.46 0-.848-.138-1.161-.418-.31-.277-.46-.602-.46-.976 0-.526.209-1.028.624-1.503.417-.483.997-.851 1.746-1.108.745-.256 1.524-.383 2.328-.383.972 0 1.741.207 2.304.624.573.41.94.857 1.11 1.34.1.306.152 1.012.152 2.117v3.982c0 .468.02.764.056.888.039.117.092.204.166.264.074.057.158.086.251.086.192 0 .385-.133.583-.405l.328.264c-.367.54-.744.936-1.14 1.185-.389.241-.833.362-1.329.362-.587 0-1.046-.135-1.374-.407-.328-.277-.53-.695-.602-1.25M207.582 29.719v1.328c.524-.57 1.031-.984 1.514-1.24.483-.263 1.003-.394 1.558-.394.666 0 1.22.185 1.659.558.439.367.733.824.877 1.372.12.42.177 1.217.177 2.402v3.994c0 .79.07 1.284.209 1.482.145.19.447.312.901.362v.394h-5.193v-.394c.388-.05.665-.214.832-.484.12-.182.177-.637.177-1.36v-4.563c0-.843-.032-1.372-.098-1.592-.066-.22-.179-.388-.341-.503-.153-.126-.325-.188-.513-.188-.634 0-1.217.45-1.76 1.35v5.496c0 .768.068 1.254.21 1.46.146.204.414.334.8.384v.394h-5.195v-.394c.435-.045.739-.183.926-.418.124-.16.186-.635.186-1.426v-5.793c0-.775-.074-1.256-.222-1.447-.138-.19-.434-.315-.89-.373v-.407h4.186zM234.697 24.762v5.245h-.405c-.493-1.435-1.228-2.525-2.207-3.27-.981-.747-2.053-1.12-3.216-1.12-1.112 0-2.042.315-2.781.944-.739.622-1.262 1.492-1.569 2.61-.309 1.119-.46 2.268-.46 3.445 0 1.426.167 2.677.504 3.753.337 1.074.878 1.865 1.625 2.37.754.505 1.646.757 2.68.757.358 0 .722-.037 1.098-.11.381-.081.768-.194 1.162-.342v-3.092c0-.585-.039-.963-.12-1.13-.081-.177-.249-.333-.506-.473-.251-.138-.55-.209-.912-.209h-.383v-.403h7.236v.403c-.55.037-.933.115-1.152.232-.216.11-.378.297-.494.56-.066.14-.1.479-.1 1.02v3.092c-.954.425-1.944.745-2.975.955-1.024.22-2.087.33-3.194.33-1.415 0-2.588-.191-3.525-.57-.931-.388-1.754-.893-2.473-1.515-.708-.629-1.266-1.333-1.668-2.118-.51-1.01-.768-2.138-.768-3.39 0-2.237.787-4.127 2.36-5.67 1.576-1.544 3.555-2.315 5.942-2.315.738 0 1.404.058 1.997.175.323.06.841.227 1.559.505.727.27 1.154.405 1.287.405.204 0 .393-.072.568-.219.176-.152.335-.439.485-.855h.405zM241.866 30.192c-.37 0-.695.143-.966.428-.263.278-.437.834-.526 1.667-.08.827-.122 1.98-.122 3.457 0 .782.051 1.513.158 2.193.079.52.25.915.513 1.185.262.272.565.405.901.405.33 0 .605-.09.822-.273.287-.25.477-.596.572-1.042.146-.696.22-2.1.22-4.212 0-1.243-.067-2.097-.21-2.557-.137-.468-.342-.809-.614-1.02-.188-.155-.44-.23-.748-.23m-.042-.779c.892 0 1.722.23 2.491.69.77.46 1.352 1.116 1.746 1.965.404.847.605 1.776.605 2.786 0 1.455-.372 2.672-1.11 3.653-.893 1.185-2.124 1.777-3.7 1.777-1.544 0-2.735-.54-3.569-1.623-.832-1.083-1.252-2.337-1.252-3.764 0-1.47.427-2.749 1.275-3.84.857-1.097 2.029-1.644 3.514-1.644M251.51 40.285l-3.458-7.954c-.419-.958-.745-1.564-.979-1.822-.167-.19-.42-.316-.748-.382v-.407h5.458v.407c-.344 0-.579.063-.704.185-.174.162-.264.352-.264.57 0 .272.164.78.486 1.526l1.69 3.851 1.35-3.323c.389-.952.582-1.626.583-2.021 0-.225-.086-.409-.25-.547-.166-.146-.453-.228-.868-.241v-.407h3.358v.407c-.323.043-.587.164-.793.362-.201.196-.51.778-.919 1.744l-3.427 8.052h-.515zM262.541 33.746c0-1.177-.066-1.984-.2-2.424-.123-.44-.321-.772-.591-.999-.155-.13-.358-.196-.615-.196-.381 0-.692.185-.933.558-.435.651-.647 1.544-.647 2.677v.384h2.986zm2.7.735h-5.632c.066 1.362.427 2.436 1.087 3.225.505.608 1.113.912 1.821.912.441 0 .84-.122 1.197-.363.36-.248.742-.69 1.154-1.327l.374.241c-.556 1.134-1.172 1.938-1.845 2.414-.672.468-1.454.702-2.338.702-1.525 0-2.677-.585-3.458-1.755-.632-.944-.946-2.113-.946-3.51 0-1.713.463-3.073 1.384-4.083.93-1.014 2.016-1.524 3.26-1.524 1.041 0 1.94.428 2.702 1.285.769.847 1.183 2.11 1.24 3.783zM270.111 29.719v2.326c.682-1.06 1.28-1.762 1.79-2.106.513-.352 1.005-.526 1.481-.526.41 0 .737.127.979.383.25.25.373.603.373 1.064 0 .49-.12.87-.364 1.142-.233.27-.52.405-.856.405-.386 0-.725-.124-1.009-.373-.284-.249-.455-.387-.505-.416-.074-.045-.16-.066-.253-.066-.21 0-.413.08-.605.241-.3.248-.526.603-.679 1.064-.236.71-.352 1.492-.352 2.348v2.359l.013.614c0 .418.022.685.075.8.087.198.213.345.385.44.174.086.468.142.879.165v.394h-5.544v-.394c.446-.037.744-.158.896-.362.165-.214.245-.765.245-1.657v-5.671c0-.587-.03-.96-.09-1.121-.07-.204-.179-.354-.317-.45-.138-.095-.386-.16-.734-.196v-.407h4.192zM279.576 29.719v1.328c.526-.57 1.033-.984 1.514-1.24.484-.263 1.004-.394 1.563-.394.664 0 1.214.185 1.655.558.44.367.733.824.879 1.372.12.42.179 1.217.179 2.402v3.994c0 .79.067 1.284.206 1.482.144.19.445.312.9.362v.394h-5.192v-.394c.386-.05.666-.214.832-.484.119-.182.177-.637.177-1.36v-4.563c0-.843-.034-1.372-.101-1.592-.065-.22-.177-.388-.338-.503-.156-.126-.327-.188-.515-.188-.631 0-1.217.45-1.76 1.35v5.496c0 .768.068 1.254.21 1.46.148.204.415.334.801.384v.394h-5.192v-.394c.43-.045.738-.183.923-.418.123-.16.184-.635.185-1.426v-5.793c0-.775-.074-1.256-.22-1.447-.138-.19-.433-.315-.888-.373v-.407h4.182zM291.473 29.719v1.35c.563-.615 1.083-1.043 1.56-1.283.484-.249 1.012-.373 1.583-.373.658 0 1.21.153 1.656.46.447.307.788.777 1.033 1.404.584-.658 1.144-1.134 1.68-1.426.54-.291 1.104-.438 1.69-.438.71 0 1.274.164 1.69.492.424.322.718.735.878 1.24.168.498.254 1.294.254 2.393v4.2c0 .79.069 1.28.209 1.472.145.19.446.315.9.373v.394h-5.303v-.394c.417-.037.724-.198.92-.484.134-.198.199-.651.199-1.36v-4.41c0-.914-.036-1.496-.11-1.745-.074-.248-.19-.43-.35-.548-.155-.124-.34-.187-.55-.187-.316 0-.633.118-.954.35-.323.227-.648.571-.98 1.033v5.507c0 .74.063 1.204.189 1.394.167.27.49.42.965.45v.394h-5.315v-.394c.287-.016.509-.084.67-.209.169-.132.28-.285.331-.461.056-.184.087-.574.087-1.174v-4.41c0-.93-.037-1.51-.11-1.745-.073-.233-.196-.416-.374-.548-.168-.132-.35-.198-.547-.198-.293 0-.56.077-.803.231-.343.227-.71.615-1.098 1.163v5.507c0 .723.07 1.204.211 1.437.143.227.446.362.898.407v.394h-5.29v-.394c.43-.045.738-.183.921-.418.124-.16.187-.635.187-1.426v-5.793c0-.775-.073-1.256-.22-1.447-.14-.19-.435-.315-.887-.373v-.407h4.18zM311.04 33.746c0-1.177-.067-1.984-.197-2.424-.124-.44-.324-.772-.59-.999-.157-.13-.363-.196-.617-.196-.381 0-.694.185-.933.558-.433.651-.647 1.544-.647 2.677v.384h2.985zm2.703.735h-5.634c.064 1.362.43 2.436 1.088 3.225.505.608 1.112.912 1.821.912.441 0 .839-.122 1.197-.363.36-.248.744-.69 1.153-1.327l.375.241c-.557 1.134-1.174 1.938-1.845 2.414-.674.468-1.454.702-2.34.702-1.523 0-2.677-.585-3.459-1.755-.63-.944-.943-2.113-.943-3.51 0-1.713.462-3.073 1.384-4.083.93-1.014 2.016-1.524 3.26-1.524 1.04 0 1.94.428 2.7 1.285.77.847 1.183 2.11 1.243 3.783zM318.321 29.719v1.328c.526-.57 1.033-.984 1.514-1.24.485-.263 1.005-.394 1.56-.394.668 0 1.218.185 1.659.558.44.367.732.824.877 1.372.119.42.177 1.217.18 2.402v3.994c0 .79.068 1.284.206 1.482.145.19.444.312.9.362v.394h-5.193v-.394c.386-.05.666-.214.833-.484.116-.182.177-.637.177-1.36v-4.563c0-.843-.033-1.372-.101-1.592-.064-.22-.177-.388-.338-.503-.156-.126-.327-.188-.518-.188-.628 0-1.213.45-1.756 1.35v5.496c0 .768.07 1.254.21 1.46.147.204.413.334.8.384v.394h-5.192v-.394c.43-.045.739-.183.924-.418.124-.16.183-.635.183-1.426v-5.793c0-.775-.072-1.256-.219-1.447-.138-.19-.434-.315-.888-.373v-.407h4.182zM329.582 25.969v3.75h2.44v1.088h-2.44v6.33c0 .591.027.976.077 1.152.058.168.158.306.296.415.139.103.266.156.387.156.474 0 .922-.363 1.351-1.088l.329.243c-.596 1.403-1.558 2.106-2.887 2.106-.655 0-1.205-.18-1.662-.537-.446-.367-.733-.772-.857-1.219-.072-.248-.109-.92-.109-2.018v-5.54h-1.339v-.385c.922-.65 1.704-1.336 2.351-2.051.65-.717 1.218-1.518 1.701-2.402h.362zM37.016 64.46c-.072.122-.162.222-.285.283M39.587 44.373c.3 0 .537-.241.537-.54 0-.298-.238-.542-.537-.542-.296 0-.537.244-.537.542 0 .299.24.54.537.54"/>
        <mask id="prefix__b" fill="#fff">
            <use xlink:href="#prefix__a"/>
        </mask>
        <path fill="#231F20" d="M58.062 32.581h5.892V22.202h-5.892v10.379zm5.892 4.93c-.104 1.12-.482 2.051-1.26 2.579l-4.632 2.767v-9.745h5.892v4.399zM52.09 32.58h5.442V22.202H52.09v10.379zm5.442 10.59l-2.142 1.28h-.035c-.158.12-.35.197-.565.197-.217 0-.415-.08-.571-.208l-2.127-1.268v-10.06h5.44v10.06zm-7.643-10.59h1.675v-3.8h-1.675v3.8zm1.673 10.276L46.93 40.09c-.775-.528-1.155-1.459-1.258-2.58v-4.398h5.891v9.745zm-5.891-16.651h2.036v-4.004H45.67v4.004zm2.543-2.5l.24-.248-.149-.273.31.032.192-.33.184.325.317-.027-.148.273.238.248-.306.058v.339l-.285-.216-.288.216v-.34l-.305-.057zm1.441 4.183c-.016-.1-.15-.128-.204-.128-.18 0-.254.299-.407.307-.111.006-.192.017-.192-.12 0-.1.23-.18.319-.268-1.255 0-1.28.574-1.477.574-.327 0 .277-.604.45-.781-.254-.04-.402-.354-.679-.511.132-.187.206-.108.369.025 0-.133.1-.286.39-.286.562 0 .405.544.498.544.088 0-.006-.544.367-.544.558 0 1.255 1.43.626 1.43-.272 0-.055-.203-.06-.242zm-1.35 3.055l.31.032.192-.33.184.327.317-.029-.148.274.238.247-.306.058v.34l-.285-.216-.288.215v-.339l-.305-.058.24-.247-.149-.274zm-2.3-3.863l.315.033.19-.33.183.326.315-.03-.145.274.239.248-.305.057v.338l-.288-.212-.29.212v-.338l-.3-.057.236-.248-.15-.273zm-.334 5.5h2.036v-3.8H45.67v3.8zm4.678-4.98l.238-.247-.151-.273.315.033.188-.33.184.326.317-.03-.147.274.239.248-.305.057v.338l-.288-.212-.286.212v-.338l-.304-.057zm-.462-1.395h1.675v-4.004h-1.675v4.004zm14.611-4.523v-.011H45.126v.011h-.002l.013 15.63c0 1.51.642 2.828 1.524 3.235l7.448 4.446c.166.186.41.305.681.305.238 0 .447-.092.605-.235l7.566-4.516c.884-.407 1.524-1.725 1.524-3.235l.015-15.63h-.002z" mask="url(#prefix__b)"/>
        <path fill="#231F20" d="M51.252 36.692c-.03-.063-.74.235-.538.215.021-.207.414-.635.592-.792-.033-.248-.352-.024-.683.148 1.103-1.58.395-.93-.22-.819.984-1.06.725-1.042 0-.712.57-.452.69-.989.604-1.146-.534.712-1.028.6-1.028 1.263 0 .434-.158 1.147-.38 1.39-.288.311-.067-1.166-.822-1.166-.243 0-.814-.02-.987.276.153 0 .385.391.385.547 0 .16.143.587-.114.587-.26 0-.559-.544-.559-.804s-.017-.198-.017-.572c0-.626-1.022-1.505-1.434-1.505 0 .435.57.54.57 1.095-.242 0-.586-.45-.586-.174 0 .28.36.331.36.576 0 .242-.412-.087-.412.173 0 .23.226.188.279.415-.166-.048-.317-.027-.346.06-.03.075.048.175.175.242-.06.053-.108.185-.108.55 0 1.235.774 1.809 1.344 1.809.404 0 .34-.283.39-.416.016.209.215-.105.215.26 0 .381-.393.214-.393.544 0 .44.622-.017.622.474 0 .59-.074.579-.074.804 0 .156.651-.217.61-.283.155.056.15.514.439.503.186-.008.227-.471.375-.51-.087.023.587.44.587.23 0-.575-.237-.333-.237-.726 0-.365.799-.295.673-.481-.108-.156-.18-.061-.264-.333.015.053-.627-.915.134-.416.8.522.888-1.216.848-1.306M71.916 40.781c.353 0 .637-.25.637-.56 0-.311-.284-.562-.637-.562-.354 0-.637.25-.637.561 0 .31.283.561.637.561M69.34 42.312c.353 0 .636-.251.636-.562 0-.308-.283-.56-.635-.56-.353 0-.638.252-.638.56 0 .31.285.562.638.562M38.721 45.839c.353 0 .637-.251.637-.561 0-.31-.284-.561-.637-.561-.35 0-.637.25-.637.56 0 .311.286.562.637.562M40.706 46.01c.352 0 .637-.253.637-.562 0-.31-.285-.561-.637-.561-.351 0-.637.25-.637.561 0 .309.286.561.637.561M95.829 19.313c.946 1.123 1.149 2.925.471 4.218-.371-.036-.304-.512-.371-.783-.675-1.258-1.215-2.857-.607-4.284.44.066.27.611.507.85M14.945 20.844c-.203.815-.203 1.94 0 2.687-.167.17-.135-.17-.304-.138-1.318-.95-.708-2.82-1.046-4.147.068-.103.235-.135.338-.067.607.408.877.985 1.012 1.665M98.734 20.946c.202.375-.169.748-.439.918-.304.068-.644-.102-.845-.374-.101-.373.1-.714.406-.885.338-.032.674.036.878.341M12.884 22.443c-.066.305-.168.612-.437.747-.204 0-.51 0-.643-.17-.205-.17-.237-.476-.137-.714.137-.236.406-.272.644-.305.235.1.473.17.573.442M100.05 23.02c.067.203.067.34 0 .544-.235.307-.573.442-.91.307-.238-.137-.305-.374-.373-.579.068-.271.338-.51.576-.612.303 0 .504.17.707.34M98.125 23.055c.27.135.067.476.033.68-.167.169-.403.44-.708.338-.17-.169-.371-.169-.439-.407 0-.34.135-.679.473-.781.27-.068.44.067.64.17M95.66 23.565c0 .374.033.85-.406.918-.408.135-.678-.206-.778-.476-.033-.341.168-.68.509-.817.269 0 .507.17.674.375M16.567 23.735c.101.338-.237.542-.438.714-.236.067-.54-.137-.677-.376-.238-.237.067-.44.137-.645.336-.306.843-.068.978.307M14.54 23.837c0 .27-.135.544-.37.645-.272.103-.54-.101-.678-.306-.169-.339.034-.644.304-.783.374-.135.609.205.744.444M87.484 23.972c.337.714.607 1.563.676 2.447-.136.648.098 1.497-.375 1.94-.471-.17-.503-.748-.809-1.054-.607-1.19-.066-2.585.137-3.74.27-.103.27.238.371.407M12.951 24.38c.1.409-.203.613-.438.85-.403.102-.675-.203-.846-.477-.032-.337.17-.68.443-.813.337-.036.674.133.841.44M92.821 25.366c.44.987.472 2.177.167 3.264l-.2.17c-.472-.918-1.15-1.769-1.386-2.754 0-.714.135-1.359.405-1.938.238-.169.374.034.473.238.036.375.203.817.541 1.02M97.08 24.754c-.036.34-.17.714-.509.817-.338.067-.674-.036-.777-.409-.101-.34.103-.646.372-.816.373-.205.745.136.914.408M14.573 25.81c0 .27-.235.576-.505.644-.27.202-.472-.135-.712-.238-.1-.272-.169-.51 0-.782.103-.204.34-.204.541-.271.307.169.608.305.676.646M16.06 25.638c.135.34-.236.51-.37.68-.406.135-.61-.17-.778-.408-.07-.34.135-.545.372-.748.405-.101.608.169.775.476M98.024 25.535c-.034.444-.71.884-.777 1.328-.373.917-1.183 1.597-2.095 1.904-.205.169-.473.408-.777.442-.068-.68.54-1.293.912-1.904.71-.92 1.691-1.497 2.737-1.77M13.899 26.964c.505.577.775 1.089 1.382 1.598.037.137-.068.341-.233.341-1.656-.103-2.773-1.804-3.584-2.992.103-.376.54-.07.779-.101.574.44 1.216.577 1.656 1.154M98.497 27.44c-.067 1.463-.775 2.958-2.095 3.672-.372.137-.777.51-1.15.273.712-1.463 1.792-2.653 2.975-3.945h.27zM92.01 28.425c.1.51-.167.817-.573.986-.373.033-.608-.272-.778-.544-.033-.339.17-.645.473-.747.101-.103.268-.103.403-.103.205.069.308.24.475.408M12.04 28.733c.64.442 1.216 1.053 1.824 1.598-.437.305-.981.032-1.486.032-1.15-.407-1.927-1.392-3.108-1.733.033-.373.472-.236.71-.34.742-.067 1.35.272 2.06.443" mask="url(#prefix__b)"/>
        <path fill="#231F20" d="M48.224 18.669c-1.893-.75-3.143 1.223-5.07.985-.234.137-.167.373-.302.545-.101.102-.272.034-.371-.035-.102-.817-.372-1.563-.474-2.347-.204-.34-.1-.816-.27-1.155-1.081-2.958 2.634-.714 3.378-2.449.643-1.495-1.249-1.665-1.823-2.718v-.443c-.541-.543-1.116-.713-1.453-1.427.236-.85.337-1.769.1-2.62-.033-.204-.168-.475-.472-.372-.642.882-1.115 1.598-1.724 2.447-.642-.476-1.252-1.087-1.993-1.497-.507-.068-.979-.577-1.553-.373-.102.204 0 .373.1.508.035 1.328.71 2.383 1.654 3.334l.103.51c-.607 1.394-.44 2.99-.607 4.49-1.522 3.874-3.987 7.614-7.331 10.3-1.926 2.176-4.224 4.284-4.53 7.276-.1.478.07 1.053-.302 1.394-1.116-.408-2.23-.952-3.143-1.666-1.553-1.088-3.785-.953-4.797-2.924-.406-.782.101-1.563.473-2.142 1.149-1.087.978-3.026.37-4.35-.133-.036-.169.133-.269.168-.101 2.007-1.69 3.4-1.08 5.612.134.643.472 1.053.641 1.665-.238-.069-.574-.069-.777-.17-.744-.103-1.487-.409-2.264-.307-1.555.714-3.682-.17-4.934 1.259-.201.035-.471.069-.402.373.742 0 1.45.204 2.195.17 1.18.204 1.958-.781 2.77-1.223h.202c.338-.341.914-.137 1.353-.205 2.13.238 3.783 1.258 5.539 2.312v.135c-.676.308-1.452.512-2.127.885-.78.579-1.656 1.326-1.893 2.278-.54.85.17 1.598.507 2.312.032.341.068.748.37.886 1.082-1.158.068-2.585.237-3.912.272-1.02 1.218-1.497 2.198-1.767 1.924-.817 3.311.746 4.863 1.632-.032 1.565.17 3.058-.168 4.589-.473.17-1.081.273-1.588.24-2.67.204-4.765 1.665-7.162 2.482-1.08.373-2.366.338-3.447.746.845.238 1.723-.067 2.602-.101 3.312-.476 5.844-3.026 9.426-2.584l.066.101c-.404.85-.944 1.566-1.586 2.211-.102-.373-.135-.68-.473-.884-.27-.137-.575 0-.778.271-.1.17-.1.373 0 .51.17.307.44.375.744.476-.068.307-.44.442-.642.714-.945 1.598-2.87.953-3.986 2.074-.169.24-.777.376-.507.75 1.283.134 2.533-.205 3.479-.887 1.25-1.392 2.568-2.718 3.819-4.045.2 1.089-.102 2.21-.744 3.095-.304-.17-.54-.408-.912-.511-.338.069-.575.41-.609.68.136.238.27.511.507.682-1.149.815-2.6.884-3.918 1.257-2.467.306-4.866.51-7.365.544-1.184-.068-2.534.34-3.648 0-1.286.237-2.671-.17-3.717.545-.137.168.034.339.034.508 1.552 1.02 3.683.204 5.439.513h13.31c.98-.036 1.96-.07 2.736-.513 1.725-.986 2.67-2.755 3.55-4.488.338-.61.574-1.326.708-2.039.338-1.156 1.385-1.972 2.534-2.074.17 1.767-.169 3.536-.574 5.166-.203 1.09-.913 2.144-.473 3.3.101.545.676.545 1.115.612 4.089-.067 8.178-.238 12.501.07.776.134 1.454.37 2.297.337.067-.101.304-.135.202-.338-.1-.376-.371-.852-.81-.953-.068-.204-.372-.137-.474-.273-2.16-1.222-4.763-.578-7.297-.544-1.318.137-2.634.375-3.751-.373-.505-.613-.135-2.55-.135-2.55 0-.769 1.86-6.121 2.096-6.562.066-.51.27-.987.202-1.566.27-.678.202-1.562.202-2.31.137-1.089.678-2.11 1.048-3.163.203-.51.372-1.054.574-1.564.203-.645.27-1.26.676-1.769 1.103.7 2.18.68 2.71 1.93l.467 2.831c0 .17.133.51.37.307.88-.579.61-1.871.61-2.754.202-1.055-.541-1.565-.847-2.483-.235-.17-.624-.98-.624-.98-.135-.75-1.773-1.264-1.402-2.182.203-.782.406-1.497 1.15-1.938.109.076.157.158.168.241l.404-.282.044-2.845c1.094-.005 2.727.137 3.842.137.306.101.543.34.879.373l.27-.373 2.737-.532c-1.161.128-1.868-1.206-2.973-1.206M51.198 19.874c.084-.01.166-.026.251-.05l-.25.05z" mask="url(#prefix__b)"/>
        <path fill="#231F20" d="M21.77 29.344c.034.406-.204.646-.507.781-.27-.101-.471-.135-.642-.407-.135-.374.203-.646.471-.783.272.068.609.103.678.409M19.575 29.344c.202.204.235.543.135.781-.237.204-.61.375-.811.103-.203-.204-.406-.442-.237-.716.237-.236.642-.44.913-.168M66.603 29.719l.03.048M92.347 30.295c.135.375-.168.646-.437.782-.337-.102-.778-.17-.778-.611.035-.27.268-.443.508-.51.301-.101.571.137.707.34M94.14 30.228c.1.17.336.442.067.612-.137.101-.238.135-.338.272-.371.067-.71-.068-.81-.408-.07-.375.234-.544.506-.714.235-.068.404.103.575.238M11.094 30.636c-.134.408-.475.577-.911.44-.103-.1-.203-.27-.27-.44.032-.238.1-.476.37-.577.404.033.71.202.81.577M22.48 31.214c-.034.272-.34.51-.574.647-.34.033-.575-.24-.745-.476 0-.272.135-.613.405-.68.372-.137.779.136.914.51M20.486 30.977c.1.1.203.373.1.543-.201.17-.505.476-.842.273-.204-.172-.44-.307-.373-.648.135-.135.304-.337.509-.405.268-.069.403.101.606.237M99.308 31.385c0 .272-.27.543-.44.645-.271.102-.574.035-.744-.17-.201-.067-.134-.34-.134-.509.17-.238.406-.375.642-.442.304.067.507.272.676.476M101.47 31.69c-.101.306-.338.579-.642.613-.203-.034-.574-.102-.505-.409 0-.238.135-.476.302-.543.338-.17.744 0 .845.34M14.945 32.167c.068.406-.067.68-.405.815-.237.137-.473-.034-.642-.17-.17-.17-.303-.443-.17-.68.068-.306.372-.237.575-.374.304.036.475.17.642.409M16.6 32.471c.101.272-.203.375-.27.58-.166.1-.406.202-.609.067-.235-.204-.507-.512-.27-.814.27-.511.982-.24 1.149.167M97.312 32.303c.036.339-.268.577-.471.783-.303.065-.608-.139-.676-.41-.032-.272.135-.475.373-.645.303-.034.607 0 .774.272M100.086 32.847c-.07.305-.036.646-.372.849-.272.069-.608.033-.81-.135-.205-.17-.239-.476-.136-.714.167-.272.471-.476.811-.409.237.137.304.306.507.409M13.663 33.56c.134.272-.17.34-.272.476-.235.137-.475.034-.676-.067-.236-.137-.135-.476-.1-.647.301-.579.913-.17 1.048.238M97.957 34.206c.135.034.067.237.033.306-.81.408-2.027.51-2.738-.137-.406-.34-.91-.476-1.35-.747.168-.443.777-.409 1.214-.51.982.135 1.76 1.055 2.84 1.088M15.283 33.9c.068.272-.135.375-.204.577-.135.205-.404.137-.572.07-.305-.205-.442-.58-.24-.85.374-.374.812-.17 1.016.203M18.256 34.105c.135.306-.067.577-.34.748-.234.135-.435-.068-.64-.103-.169-.238-.473-.51-.169-.782.306-.51.913-.238 1.15.137M57.318 35.543c-.065.677-1.188-.098-1.03.807.162.647.293 1.422.677 1.906.319.452.16 1.164.127 1.71-.288.488-.769.841-1.282 1.1-.964-.096-2.377.484-2.826-.71-.193-.518-.547-1.034-.547-1.615.098-.066.225-.066.323-.162 0-.225-.255-.355-.225-.582 1.091-.195-.449-1.163.481-1.227.771.807 2.023.55 2.697 1.42.16.132.288.325.481.421-.128-.809-.515-1.614-.642-2.487-.096-.452.063-.872.387-1.13.577-.452 1.058.194 1.379.55M21.23 35.329c.1.34-.168.543-.372.714-.304.135-.473-.204-.609-.375-.103-.339.136-.51.338-.68.237 0 .507.103.642.341M42.075 35.668c.405 1.327.27 2.685-.406 3.808-.034.271.068.715-.304.68-.91-1.258-.237-3.026.135-4.353.068-.339.473-.474.575-.135M70.995 36.314c.474.952.507 2.211.068 3.163l-.27.272c-.372-.783-.676-1.563-.778-2.414.17-.612.372-1.156.406-1.802.475-.103.44.51.574.781M23.865 36.688c-.203.407-.777.51-1.15.783-.809.61-1.993.748-3.007.577.879-1.223 2.23-1.937 3.851-1.598.07.137.238.07.306.238M9.98 37.912c1.247.884 1.588 2.108 2.33 3.331.1.137.439.17.304.443-.27.204-.54-.203-.914-.137-1.284-.577-2.092-2.005-2.058-3.502 0-.135.202-.135.337-.135M69.677 38.966c.035.34-.034.68-.303.782-.373.103-.675-.102-.778-.407-.1-.24.103-.375.17-.544.272-.273.744-.136.91.17" mask="url(#prefix__b)"/>
        <path fill="#231F20" d="M83.936 40.768c0-.645.168-1.257.235-1.87.103-.204.17-.44.135-.712.811-1.09 2.469-.75 3.751-.647.507.27 1.15.237 1.688.373.238-.17.576-.204.847-.17 1.081-.579.37-1.835.437-2.822l-.405-1.02c-.1-.203-.203-.441-.27-.68-.203-.237-.338-.681-.54-.917-.572-1.496-1.688-2.348-2.635-3.536-1.725-2.245-4.425-3.503-7.129-4.386-2.668-.918-5.373.272-7.77 1.12-.742-.204-1.116-.78-1.318-1.427-.134-1.291.135-2.55.642-3.605.101-.849.676-1.495.91-2.278.609-1.904 1.252-3.774 1.388-5.846.067-1.26-.877-2.144-1.824-2.687-.645-.17-1.385-.135-1.858.374-.441.919-1.387 1.53-2.198 1.972-.068.578.643.204.877.408.743.135 1.591-.103 2.198.375.067 1.358-.71 2.48-1.42 3.5-1.147 1.701-2.363 3.436-3.073 5.306l-.135-.137.162 8.311c1.079 1.791 2.424 3.833 4.432 4.509 1.081.882 2.433 1.937 3.885 1.154.775-.238.844.85 1.218 1.293.404 1.257-.509 2.141-.576 3.297l-.879 1.87c-1.012 1.973-1.925 4.081-3.48 5.747-.508 0-.81.543-1.317.579-.272.373-.813.1-1.149.236-1.046.442-2.533.172-3.242 1.158.067.1.167.135.27.168 2.06.034 4.36.17 6.554.068.27-.101.507-.34.54-.645-.305-.577.1-1.088.37-1.53.171-.817.712-1.325.947-2.108.711-1.394 1.52-2.753 2.3-4.149l1.044-1.7c.24-.578.644-1.292 1.05-1.904.27-.27.405-.578.607-.917.036-.34-.133-.477-.338-.714.235-.24.609-.17.914-.24.844.51 1.72 1.327 1.891 2.247l.303.88.136.41-.069 1.123.135 1.053c.171 1.632-.135 3.298-.302 4.932-.576 1.97-2.839 1.767-4.462 2.209-.406.271-1.18.136-1.18.817 1.959.408 4.255.168 6.35.135.338-.135.405-.443.574-.748.07-.442.509-.817.37-1.293-.37-.476-.03-1.223-.133-1.87.07-.17.07-.408 0-.644.272-.986.203-2.177.407-3.13l.135-1.292zM100.557 39.443c-1.081 1.529-2.23 3.264-4.12 3.807-.137 0-.271.068-.339-.101 1.148-1.225 1.758-3.129 3.55-3.571.269-.135.639-.272.91-.135M8.323 41.109c-.167.135-.034.44-.336.476-.27.135-.575-.036-.71-.306-.137-.339.168-.68.44-.747.27.135.539.236.606.577M18.054 41.585c.1.306-.237.306-.406.373-1.42.51-2.872.034-3.886-.985 0-.137 0-.272.135-.306 1.386.34 3.008.068 4.157.918M10.182 41.142c.068.136.1.374.068.511-.203.306-.507.373-.845.306-.203-.102-.306-.238-.442-.443.037-.34.307-.543.577-.644.27.033.473.101.642.27M41.839 41.313c.067.305-.203.511-.404.645-.306.069-.576-.068-.71-.272-.103-.236 0-.577.234-.646.307-.068.778-.034.88.273M101.841 41.45c.102.339-.201.508-.438.712-.202.103-.44 0-.643-.101-.032-.17-.235-.308-.168-.544.136-.307.438-.442.776-.408.17.136.306.17.473.34M104.071 41.313c.203.305.034.543-.135.781-.135.238-.406.306-.608.204-.203-.204-.474-.305-.506-.612 0-.272.303-.476.506-.577.34-.137.473.204.743.204M6.904 42.298c.034.238-.167.375-.235.577-.17.07-.34.206-.542.139-.238-.103-.405-.307-.507-.545.07-.306.269-.578.608-.68.27.069.576.204.676.51" mask="url(#prefix__b)"/>
        <path fill="#231F20" d="M78.057 42.298c.068.137.034.307.034.442-.203.274-.473.51-.81.341-.204-.206-.443-.408-.339-.715.272-.373.845-.508 1.115-.068M12.343 42.81c-.068.237-.167.474-.473.507-.303.036-.406-.236-.573-.373 0-.305-.035-.61.27-.781.406-.137.776.204.776.646M9.1 42.875c.1.34-.136.58-.338.748-.406.137-.744-.169-.91-.476.03-.306.27-.679.607-.781.303 0 .473.342.64.51M80.286 42.81c.067.339-.034.678-.369.814-.407.137-.746-.204-.915-.475.169-.272.202-.647.61-.714.305 0 .506.136.674.374M10.688 42.944c.1.238-.1.34-.17.51-.166 0-.27.204-.472.137-.133-.17-.405-.238-.44-.476-.033-.341.204-.51.44-.647.338-.033.542.205.642.476M99.984 43.216c-.102.272-.303.408-.575.545-.268.068-.44-.17-.642-.273-.169-.135-.101-.44-.032-.611.338-.58 1.249-.306 1.249.339M102.551 43.353c-.1.373-.473.544-.81.578-.305-.135-.643-.375-.406-.782.135-.135.203-.273.405-.307.406-.135.71.172.811.511M86.502 43.59c.17.443-.235.578-.505.782-.236-.034-.44-.135-.644-.272-.066-.373.102-.714.475-.884.304 0 .472.138.674.374M77.214 43.999c.167.067.1.305.066.408-.202.135-.472.474-.778.272-.238-.137-.404-.341-.336-.647.167-.373.879-.408 1.048-.033M79.104 44.237c.034.271-.034.408-.27.543-.237.238-.507-.034-.744-.101-.066-.137-.133-.341-.034-.51.102-.137.27-.238.44-.272.236.068.507.068.608.34M21.77 44.271c.201.203-.034.44-.07.647-.167.202-.54.373-.842.168-.337-.136-.305-.578-.237-.849.203-.069.203-.305.471-.305.308.032.474.169.678.34M90.118 44.407c.068.34-.27.474-.507.543-.404.135-.608-.17-.775-.442 0-.202.2-.34.268-.51.475-.202.778.137 1.014.409M88.294 44.407c.133.34-.237.51-.37.678-.238.103-.54.07-.744-.135-.17-.101-.17-.305-.17-.51.2-.168.305-.372.54-.442.306 0 .609.17.744.409M103.53 44.814c.066.476-.539.238-.774.375-1.42.849-3.247.203-4.597-.307.101-.44.608-.27.879-.44 1.451-.92 2.938.203 4.391.271l.101.101zM11.06 44.407l-.136.238c-1.249.747-2.872 1.257-4.358.781l-.135-.204c1.249-.916 2.906-1.154 4.528-.916l.1.1zM93.564 44.645c0 .272-.135.51-.337.645-.338.102-.778 0-.879-.373-.1-.272.169-.544.44-.645.236 0 .641.034.776.373M17.108 44.78c-.136.272-.068.544-.406.68-.338.137-.743-.17-.845-.443-.101-.372.17-.474.338-.645.406-.204.71.101.913.409M14.71 44.95c.1.238-.104.375-.17.544-.17.205-.474.17-.677.103-.235-.205-.471-.443-.37-.816.203-.17.304-.273.54-.374.305.067.609.204.676.543M95.93 45.733c-.034.305-.27.543-.541.612-.27.034-.507-.17-.642-.34-.102-.205-.068-.476.135-.647.066-.101.304-.101.44-.169.302.034.54.272.607.544M12.208 45.358c.101.272-.135.375-.167.58-.103.578-.474.951-.744 1.46-.644.782-1.556.782-2.467 1.022l-.137-.274c.98-1.257 2.028-2.244 3.415-2.855l.1.067zM94.24 46.107c.068.408-.27.476-.507.644-.304 0-.54-.168-.676-.406-.1-.373.237-.51.44-.68.338-.068.643.17.743.442M16.092 46.107c-.033.067.036.135.103.17-.033.375-.304.474-.507.646-.304 0-.542-.104-.743-.34-.135-.306 0-.68.336-.782.308-.034.712 0 .811.306M100.457 47.127c.336-.034.404-.442.777-.51.338-.067.64.136.811.375.135.407-.17.611-.44.78-.237.17-.744-.204-.71.238.236.17.439.41.473.68-.066.137-.305.103-.404.035-.982-.408-2.028-1.088-2.435-2.108-.132-.307-.776-.545-.405-.816.981-.068 1.792.715 2.333 1.326M103.7 46.072c.168.169.1.478-.034.646-.169.341-.674.205-.98.17-.169-.17-.337-.338-.27-.612.135-.204.27-.339.507-.442.304-.067.54.07.777.238M91.437 47.908c.302.373.606.951.742 1.36-.068.103-.239.069-.305.069-1.147-.648-2.634-1.362-3.073-2.72-.101-.137-.372-.308-.34-.546.88-.17 1.724.478 2.334.952.236.341.507.512.642.885M14.204 46.618c.133.305-.139.543-.305.678-.373.07-.577-.067-.78-.272-.235-.373.203-.678.475-.816.268-.033.439.24.61.41M95.66 47.399c.033.204-.236.34-.339.476-.269.034-.542.135-.777-.103-.068-.169-.238-.44-.034-.611.373-.476.914-.101 1.15.238M104.071 47.875c.101.407-.203.679-.475.85-.336.1-.605-.136-.81-.306-.166-.204-.03-.408 0-.646.239-.205.542-.373.881-.237.134.101.269.169.404.34M80.693 52.566c0 .407-.744.307-1.048.613-1.049.543-2.298.543-3.548.508v-.201c1.215-1.021 2.974-1.396 4.596-.92M31.4 54.029c-.034.307-.205.474-.509.579-.236 0-.471-.137-.574-.341-.135-.407.203-.579.44-.748.303.036.574.272.643.51M80.118 54.402c-.068.306-.17.648-.507.782-.304.067-.507-.1-.745-.236-.168-.137-.065-.377-.1-.546.236-.61 1.117-.61 1.352 0M86.842 54.538c-.845.545-1.791 1.192-2.908 1.192l-1.822-.036-.17-.136c1.113-1.359 3.143-1.359 4.9-1.222v.202zM22.14 55.353c0 .309-.134.545-.438.647-.337.069-.575-.07-.71-.306-.135-.305 0-.61.27-.78.372-.24.744.17.879.44M23.83 55.695c.102.17-.066.271-.135.443-.203.1-.472.17-.639 0-.24-.138-.307-.374-.204-.58.101-.204.304-.169.407-.305.233.1.471.204.571.442M10.89 59.128c-.339.41-.878-.1-1.248-.304-1.184-.682-1.149-2.007-2.335-2.79.137-.408.441.034.678-.035.2.138.473.273.71.375 1.148.646 1.42 1.735 2.194 2.754" mask="url(#prefix__b)"/>
        <path fill="#231F20" d="M55.656 58.482c-.135.408-.405.747-.37 1.191l-.136.066c.101-.51-.404-.813-.27-1.359-.271-.406-.271-.918-.506-1.358-.304-.547.269-.785.507-1.156.473.202.64.645.978 1.053.203.577-.236 1.02-.203 1.563m53.72-12.545c-.54-.987-1.454-1.394-2.534-1.394-.879.068-1.522.645-1.892 1.394-.201.748.067 1.428.642 1.87.236.102.54.068.676-.17.169-.442-.305-.442-.372-.783-.135-.474.035-.883.372-1.19.338-.34.912-.17 1.318-.17.403.273.809.51 1.012.987.202.579.202 1.223 0 1.8-.37.853-1.215 1.531-2.094 1.702-2.806.408-33.583.271-33.583.271-3.617.341-7.735-.68-10.844 1.224-1.42.68-2.129 2.245-2.5 3.639-.913.815-1.893 1.767-2.636 2.686l-.103-.103c.17-.816.54-1.529.71-2.347.508-.68.508-1.597.88-2.344 1.284-2.074 2.497-4.182 4.492-5.644.845-1.124 2.332-.918 3.616-.918 1.385.646 3.007.849 4.695.68.068-.067.102-.135.102-.238-.472-.442-1.25-.612-1.79-1.055-1.351-.646-2.635.205-4.056.103-.068-.069-.135-.103-.1-.204 1.284-.952 2.736-1.632 4.189-2.246 1.182-.645 2.433-.984 3.681-1.46.509 0 .982-.442 1.453-.137l1.793-.475c.066.035.135.135.27.102 1.518-.51 3.447-.033 5.167-.067l.237.202 1.624.409c.608.067.878.781 1.519.815.34-.476-.37-.678-.541-.986.745-.17 1.59.034 2.264.341l-.336.373c-.205.375.1.647.405.782.235.069.406-.102.571-.17.441-.306-.032-.612.103-.883 2.501.44 4.9 1.053 7.197 2.04.642.204 1.25.68 1.96.645-.71-.645-1.692-.986-2.569-1.359-.574-.34-1.385-.375-1.823-.85.1-.17.338-.103.438-.238 1.15-.136 2.127-.986 2.94-1.904.066-.204.44-.137.405-.409-.304-.34-.812.102-1.218.07-1.417.27-2.024 1.937-3.443 2.243-1.724-.409-3.481-.817-5.206-1.258-.843-.136-1.754-.204-2.531-.545l-1.894-.17h-3.445c-.036-.068-.136-.102-.103-.203 1.218-.305 2.265-1.02 3.48-1.328l9.055-4.147c.95-.85 1.793-1.802 2.57-2.788.034-.271-.137-.543-.374-.646-.236-.101-.505-.067-.674.135-.405.307 0 .682 0 1.055-.405.545-1.05 1.02-1.554 1.326-.134-.033-9.325 4.182-9.325 4.182-1.352.578-2.704 1.226-4.125 1.531l-1.956.306c-.135.408-.473.646-.848.78-.54.104-.977.443-1.553.443-4.392 1.7-8.952 3.504-12.43 6.972.202-.409.302-.92.337-1.43-.068-.51-.035-1.087-.373-1.497-.078-.186-.329-.734-.246-.93l-.496.321c-.304.746-.575 2.106-.27 2.888.1.612.605 1.326.135 1.87-1.622 1.974-2.536 4.354-3.618 6.597-.404-.068-.606-.44-.775-.817 1.149-1.462 2.063-3.094 2.399-4.964.237-.17.068-.612.303-.816-.066-.544.305-1.087.035-1.53.216-.74-.988-1.426-.22-1.901l-.636.303c-1.453 1.906.755 4.761-.903 6.597v.135c-.473.613-.708 1.226-1.35 1.63-.81-.337-1.114-1.253-1.588-1.935-.745-.716-.745-2.177-.303-3.163.303-.985-.202-1.836-.307-2.72l-.336-.203c-.811 1.053-1.114 2.72-.475 3.978.338.613.375 1.462.88 1.973.306.985.912 1.632 1.453 2.515.137.34-.201.408-.37.578-.372-.238-.306-.781-.642-1.022-1.117-2.377-2.568-4.282-4.325-6.221-.07-.305-.372-.577-.205-.916.644-.613.78-1.803.44-2.586-.065-.169-.27-.373-.235-.543l-.507-.409c.067 1.19-.71 2.243-.374 3.502v.068c-3.479-2.618-7.324-4.956-11.246-6.79l-.31.863c.99.25 3.618 1.846 3.618 1.846 1.183.444 2.265 1.158 3.378 1.802 4.596 2.552 7.637 6.768 9.697 11.461.035.375.373.782.135 1.156-.711-1.09-1.723-1.7-2.567-2.585-.236-1.598-1.182-3.13-2.57-3.774-.505-.748-1.584-.815-2.43-1.055l-12.298-.067c-10-.137-19.122.307-29.057.135-1.383-.135-3.073-.611-3.48-2.074-.27-.51-.27-1.393 0-1.869.373-.646 1.049-.85 1.725-.918.54.068.912.578 1.147.952 0 .442-.372.85-.54 1.224.033.135.168.407.405.305.44-.17.777-.644.879-1.087.035-.24.133-.577-.102-.747-.203-.716-.944-1.225-1.586-1.396-.845-.067-1.724.17-2.298.783-.811.679-.78 1.904-.54 2.856.54 1.495 2.128 2.516 3.647 2.72l32.875.137c3.207.169 6.823-.375 10.069.27 1.18.375 2.433 1.257 2.735 2.587-.035.066-.135.032-.235.032-2.671-1.733-6.184-2.381-9.597-1.973-1.352-.066-2.566.444-3.783.783-.642.137-1.25-.172-1.657-.543-1.215-1.089-3.344-1.021-4.897-.614 0 .103-.034.204.034.24 1.654-.137 2.634 1.29 4.12 1.46.339.068.61-.305.91-.033-1.55.748-3.038 1.632-4.694 2.11-.507-.103-.777-.58-1.181-.851-.644-.716-1.826-.41-2.705-.48-.303.07-.571-.131-.776 0 .27.547.879.853 1.453 1.125.845.373 1.824-.034 2.602.476-.204.238-.474.307-.71.476-1.587.614-2.907 2.042-4.663 1.937-1.858.204-3.75-.34-5-1.632-.541-1.326-1.925-2.039-3.412-1.971-.1.069-.237.069-.203.24.743.44 1.318 1.323 2.06 1.834.473.577 1.387 0 1.826.645.642.443 1.453.816 2.195.953.54.238 1.147.34 1.756.474l-.235.137c-3.074 1.023-6.622 1.124-10.067.987-1.014-.033-1.994-.34-3.008-.307.166.206.507.375.81.48-.269.167-.575.234-.913.268-.405.103-.878.137-1.284.342-.539-.035-1.012.17-1.451.338-.575.613-1.25 1.259-1.925 1.564 0 .137-.037.341.135.341.642-.271 1.452-.067 2.094-.34 1.113-.102 1.755-1.327 2.637-1.837.943-.746 2.297-.577 3.445-.408.676.17-.069.444.136.884.27.24.503.511.878.409.068-.068.135-.137.234-.17.204-.271.17-.578.035-.85.473-.307 1.115.034 1.622-.17 1.283-.034 2.567-.306 3.819-.34.2-.032.439-.237.642-.032-.102.269-.441.304-.305.677.068.304.406.444.676.51.337-.135.64-.373.506-.815-.066-.24-.337-.272-.506-.372.71-.342 1.52-.445 2.229-.784.507-.102.98-.274 1.42-.476.439-.036.81-.442 1.216-.272-.17.577-.406 1.122-.711 1.632-.538 1.802-.945 4.182 0 5.917.103.034.136-.034.204-.07-.71-1.802-.304-3.876.304-5.575.473-2.89 3.445-3.74 5.576-4.827l.098.135c-.573 1.495-1.418 2.923-1.284 4.726.067.307-.134.61 0 .816.576-.307.946-.987 1.252-1.564.235-1.53-.644-3.434.912-4.557 2.771-1.085 5.373-2.514 8.582-2.55.101.103.34-.067.371.135-.675.75-1.655 1.462-1.96 2.38-1.08 1.497-1.047 4.048-.576 5.883.308 1.055-.605 1.634-1.044 2.449-.21.29-.27.784-.463 1.117l.666.073c.573-.611 1.113-1.36 1.149-2.245.066.34.368.613.64.682.237-.375-.204-.648-.236-1.021.54-.307.777.373 1.216.51.71.17 1.318.475 2.062.475l.234-.236c-.741-1.158-2.228-1.36-3.512-1.43-.675-1.122-.675-2.516-.607-3.874.134-.714.269-1.463.674-2.11.17-.476.64-.918.946-1.29.609-.58 1.386-.986 2.131-1.157h.1c0 .068.034.103.034.103-.913.712-1.014 1.7-1.555 2.584-.574.849-.845 2.005-.304 2.958.203.44.101 1.12.574 1.428.44-.614.475-1.396.71-2.076-.101-1.122-.777-2.175-.135-3.262.338-.852 1.047-1.191 1.823-1.495 1.859-.172 3.48.78 5.101 1.495.34.236.914.439.982.918-.034.918-.54 1.836-1.252 2.277-.911.543-2.227.61-3.074-.032-.507-.513-.708-1.398-.539-2.076.372-.407.879-.75 1.485-.544.34.17.642.51 1.082.308.167-.103.235-.377.135-.547-.373-.203-.507-.714-1.014-.783-.642-.1-1.42-.066-1.857.376-.713.613-.983 1.53-.779 2.38.239 1.088 1.05 1.87 2.096 2.175 1.554.373 3.178-.101 4.156-1.426.405-.444.507-.918.743-1.465 1.622.987 2.837 2.722 3.481 4.49 0 .578.169 1.19.032 1.699l1.183.101c-.101-.27 0-.576.101-.814.441-2.244 1.827-4.114 3.48-5.577.575-.34.44.442.575.68.504 1.294 1.69 2.21 2.94 2.584 1.418.24 2.77-.1 3.648-1.19.44-.815.98-2.005.237-2.854-.475-.579-1.115-.886-1.859-.886-.878 0-1.417.613-1.857 1.26 0 .27-.035.576.201.711.136 0 .406.036.509-.168.067-.51.505-.746.909-1.021.373-.203.779 0 1.081.205.374.306.441.816.473 1.327-.067.646-.505 1.326-1.113 1.598-.98.508-2.4.27-3.246-.307-.404-.442-.639-.952-.944-1.497-.068-.543-.272-1.018 0-1.564 1.487-.883 3.041-1.53 4.83-1.698.712.133 1.32.61 1.793 1.119 1.551 1.6-.338 3.88.743 5.647.406-.068.406-.613.573-.954.507-1.223-.133-2.55-.437-3.74-.408-.747-.642-1.392-1.286-2.005.17-.067.238-.067.407-.067.71.474 1.485 1.017 2.06 1.767.98 1.598 1.488 3.503 1.316 5.577-.267 1.018-1.352 1.496-2.193 1.867-.338.275-.744.682-.913 1.09.406.238.98 0 1.386-.17.639-.238 1.014-1.055 1.453-1.428.064.034.034.137.064.206.037.373-.167.882.172.984.17-.476.203-1.156.303-1.735.44.477.507 1.088.644 1.7.304.615.809 1.429 1.618 1.532.203-.306-.032-.615-.1-.885-.1-.85-.81-1.294-1.283-1.905-1.182-1.632-.643-4.18-1.555-6.016-.338-.988-1.046-1.703-1.823-2.517l.135-.135c1.654-.035 3.04.508 4.559.817 1.86.915 4.56.712 5.439 3.126.373 1.36.983 2.617 1.928 3.672l.1-.066c.204-.342.204-.92 0-1.26-.2-1.698-1.689-2.107-2.466-3.538l.1-.133c.81.238 1.657.44 2.468.78 2.705.749 4.594 3.403 4.934 6.156 0 2.174-.406 3.978-1.25 5.812-.102.274-.576.58-.272.817.373-.273.439-.715.643-1.02 1.114-1.868 1.688-4.455 1.114-6.833-.034-.443-.54-.781-.304-1.225.17.203.371.238.573.307.204-.138.51-.138.645-.376.03-.202.166-.44 0-.612-.204-.304-.645-.304-.98-.237-.169.204-.372.478-.407.746-.336-.577-.676-1.325-1.217-1.799l.07-.103c1.52.51 2.902 1.257 4.458 1.666.338.204.71.373 1.183.373 1.318.511 2.771.712 4.157 1.055 1.01-.102 1.858.373 2.872.136v-.067l-.035.032c-.372-.476-1.182-.032-1.624-.373-2.33-.238-4.56-.85-6.652-1.666.032-.101.169-.067.27-.067.338-.17.574-.478.54-.85-.17-.239-.44-.376-.778-.376-.203.102-.473.34-.507.578.034.271.27.58.507.648-.068.067-.203.032-.303.032-1.049-.476-2.064-.918-3.076-1.394-.37-.068-.675-.373-1.046-.44-.778-.375-1.556-.75-2.334-1.054-2.16-1.124-4.558-1.735-6.856-2.552-.507-.136-.98-.271-1.453-.406-.843-.238-1.688-.442-2.533-.682-2.872-.714-6.725-.781-9.225.783-.406-.137-.642.51-.844.101.707-1.87 2.771-2.48 4.627-2.548 13.549-.137 26.252-.238 39.598-.442 1.554 0 3.073-.545 3.884-1.94.576-.815.676-2.21.239-3.127" mask="url(#prefix__b)"/>
        <path fill="#231F20" d="M92.314 56.34c0 .102.202.134.135.305-1.183 1.055-2.837 1.362-4.527 1.43-.137.033-.272.136-.438.1-.103-.067-.136-.168-.067-.236 1.215-1.326 3.072-2.008 4.897-1.598M86.875 56.884c.135.476-.168.748-.54.918-.373-.033-.575-.271-.744-.543-.102-.272.135-.409.238-.579.269-.272.91-.272 1.046.204M22.648 56.953c.068.238.034.542-.167.714-.137.17-.44.204-.61.17-.236-.035-.372-.307-.44-.51 0-.306.17-.477.44-.647.27 0 .575-.034.777.273M16.6 59.16v.24c-.811.17-1.587-.035-2.197-.51-.471-.68-1.012-1.36-1.789-1.7 0-.102-.204-.238 0-.307 1.69 0 2.703 1.36 3.986 2.278M97.449 56.92c-.776 1.156-1.451 2.583-2.837 3.093-.238 0-.44.34-.644.101.543-1.29 1.692-2.685 3.01-3.23.133 0 .334-.034.471.036M24.608 57.327c.034.373-.235.44-.473.646-.27.034-.406-.172-.575-.374-.135-.34.17-.475.338-.647.27-.069.575.137.71.375M101.706 57.531c-.303.442-.167 1.09-.471 1.564-.676.782-1.252 1.666-2.332 1.837-.17-.341.235-.68.405-.988.473-1.019 1.15-2.175 2.23-2.616l.168.203zM6.126 57.837c.102.238.203.475 0 .748-.202.17-.505.24-.775.135-.304-.167-.406-.545-.27-.815.202-.306.81-.476 1.045-.068M4.201 58.244c.034.172.134.309.102.476-.102.17-.269.375-.472.408-.373.07-.606-.136-.779-.44-.032-.307.068-.58.337-.714.307-.137.645.034.812.27M8.186 58.449c.068.272.136.747-.268.817-.473.204-.744-.137-1.014-.409 0-.305.17-.545.404-.682.34-.032.643 0 .878.274M13.729 58.89c-.034.238.034.58-.237.648-.169.169-.473.1-.642.067-.067-.204-.439-.376-.236-.614.135-.167.27-.27.473-.37.203.1.508 0 .642.269M104.95 59.128c-.1.238-.236.545-.506.545-.306-.035-.61-.07-.777-.376-.137-.372.167-.577.44-.677.337 0 .775.135.842.508M98.767 59.298c.034.274-.27.476-.405.579-.473.204-.879-.138-1.05-.511.068-.306.308-.508.577-.61.44-.035.676.203.878.542M102.957 59.23c0 .24-.135.476-.304.577-.27.103-.608.07-.811-.133-.304-.272-.068-.511.135-.716.304-.169.877-.133.98.272M5.25 59.808c.067.374-.068.714-.406.852-.304 0-.642-.172-.744-.478-.033-.305.066-.61.338-.712.337-.103.609.101.811.338M97.08 60.183c.1.373-.102.716-.475.884-.27.068-.44-.067-.64-.238-.136-.17-.308-.543-.036-.714.269-.51.946-.307 1.15.068M23.425 60.555c.135.375-.269.444-.369.647-.138.066-.408.1-.51-.036-.169-.202-.37-.407-.27-.71.169-.136.236-.274.44-.341.37-.102.508.238.709.44M104.341 60.795c.068.24-.133.339-.167.51-.203.17-.54.204-.777.136-.306-.172-.306-.442-.306-.748.203-.136.237-.307.473-.373.304 0 .678.135.777.475M102.248 60.898c.135.405-.236.61-.507.712-.135.034-.338-.068-.373.136.88.443 1.42 1.158 2.095 1.801v.274c-1.215-.036-2.467-.343-3.344-1.291-.238-.173-.643-.173-.914-.41.443-.441 1.252-.272 1.86-.304.438-.478-.508-.817.068-1.226.203-.035.338-.238.608-.172.235.103.372.274.507.48M88.429 60.93c.067.17-.134.374-.167.544-.205.204-.51.238-.744.137-.17-.24-.442-.444-.34-.78.272-.511 1.15-.412 1.25.1M12.884 62.12c-.1.306-.235.51-.573.544-.27-.034-.507-.133-.609-.407-.035-.238.136-.374.168-.545.373-.304 1.047-.101 1.014.409M15.621 61.68c0 .474-.505.747-.676 1.225-.507 1.122-1.42 2.14-2.703 2.243-.135-.308.44-.682.576-.986.537-1.156 1.62-1.769 2.6-2.483h.203zM87.618 62.154c.034.376-.304.646-.574.783-.305.103-.541-.137-.71-.274-.27-.27-.1-.543.034-.813.407-.409.98-.07 1.25.304M89.713 62.394c-.034.371-.27.646-.608.747-.068-.1-.237-.035-.338-.067-.237-.137-.441-.343-.441-.613.17-.17.238-.442.474-.477.305-.032.813 0 .913.41M20.857 62.358c.034.373-.235.579-.507.715-.304.032-.505-.17-.64-.41-.068-.305.235-.51.404-.68.407-.135.508.17.743.375M23.19 62.495c-.102.306-.303.51-.643.579-.238-.07-.508-.137-.608-.41-.034-.338.236-.51.473-.68.338 0 .71.136.779.511M96.977 64.875c.168.133.472.305.404.545-.539.238-.978-.376-1.485-.478-.81-.815-1.42-1.7-1.759-2.72.306-.306.644.069.914.172.778.646 1.52 1.497 1.926 2.48M98.227 62.495c.1.236.067.51-.068.748-.202.339-.64.271-.946.204-.169-.204-.473-.476-.27-.783.101-.27.405-.338.643-.442.234-.032.406.172.64.273M26.296 63.378c.035.272.101.682-.235.85-.304.068-.71-.033-.81-.406-.17-.41.203-.477.406-.68.27-.068.436.067.639.236M89.61 65.59c.474.68.812 1.528.88 2.412-.104.238.168.478-.036.645h-.134c-1.52-1.085-1.858-2.617-2.431-4.146-.135-.068-.17-.205-.135-.34.338-.307.573.306.912.409l.945 1.02zM30.69 64.433c-.034.033 0 .067.033.067-1.35.954-3.244 1.53-4.797.613-.033-.105.034-.272.168-.306.981-.307 1.926-.78 2.973-.644l1.622.27zM22.986 64.603c-1.147.714-2.195 2.108-3.615 2.449-.27.1-.44.474-.776.272.607-1.837 2.602-2.822 4.391-2.994v.273zM87.618 66.132c.1.274 0 .648-.27.714-.17.17-.506.17-.64 0-.305-.136-.305-.44-.305-.68.1-.236.336-.27.505-.373.304.068.543.068.71.34M84.815 66.304c-.205.477-.778.747-1.218.882-1.148.409-2.195-.135-3.21-.405.036-.275.371-.172.542-.342 1.113-.237 2.262-.476 3.448-.17.098-.067.338-.102.438.035M22.986 67.288c-.1.137-.135.444-.405.545-.235.101-.475 0-.676-.135-.066-.206-.303-.375-.135-.613.069-.237.336-.303.54-.374.338.035.609.24.676.577M24.979 67.595c-.1.204-.203.51-.472.646-.272.068-.474-.069-.677-.238-.1-.204-.203-.442-.1-.68.068-.172.303-.204.473-.305.338-.034.64.305.776.577M86.975 67.935c.034.272-.1.44-.235.646-.17.238-.507.272-.741.137-.239-.035-.306-.307-.408-.478-.202-.271.134-.44.237-.678.372-.309.98-.137 1.147.373M88.462 67.867c.034.168.135.339.068.475-.203.173-.338.611-.744.443-.201.067-.3-.205-.404-.27-.137-.343-.034-.851.404-.92.306-.101.509.172.676.272M23.764 68.853c.066.374-.067.712-.34.918-.37.067-.844.067-.98-.375-.033-.34 0-.781.408-.984.338-.035.742.034.912.44M25.688 68.718c-.066.951-.27 2.107-1.215 2.65-.543.104-1.083.614-1.622.271v-.167c.71-1.021 1.995-1.803 2.837-2.754M81.672 69.497c.135.204-.102.376-.203.547-.201.236-.575.135-.811.034-.237-.103-.27-.444-.169-.682.068-.201.27-.302.44-.373.305-.034.574.24.743.474M29.068 71.063c.471.782.203 1.837.471 2.687-.571.068-.81-.579-1.18-.92-.744-1.019-.643-2.38-.98-3.567.067-.103.168-.103.236-.07.507.34.878.986 1.284 1.427-.066.24.203.24.169.443M83.361 69.77c0 .274-.304.34-.471.51-.239-.034-.441-.135-.643-.305-.103-.341.168-.443.337-.613.338-.133.676.034.777.408M87.382 72.798c0 .101-.033.304-.202.238h-.137c-.98-.885-1.96-1.872-1.825-3.23l.204-.036c.911.783 1.927 1.634 1.96 3.028M84.848 71.708c.033.273-.135.478-.304.646-.372.102-.947.07-1.016-.442-.032-.339.34-.508.509-.678.405-.102.676.17.81.474M82.618 72.423c-.473 1.258-1.757 1.904-2.634 2.857-.171-.101-.103-.376-.068-.513.336-1.29 1.352-2.546 2.602-3.06.539.07 0 .444.1.716M85.152 73.442c0 .309-.304.44-.473.613-.272-.036-.542-.103-.745-.375-.032-.339.238-.44.441-.61.338-.068.642.1.777.372M60.058 11.982h-.373c-.979 0-.148 1.187.378 1.187.653 0 .695-1.187-.005-1.187zm-3.025 1.187c.978 0 .053-1.187-.475-1.187h-.978c-.978 0-.052 1.187.475 1.187h.978zm-4.105 0c.978 0 .053-1.187-.475-1.187h-.976c-.98 0-.054 1.187.471 1.187h.98zm7.084-1.454c.463 0 .835.377.835.841 0 .465-.372.841-.835.841h-10.02c-.46 0-.834-.376-.834-.84 0-.465.373-.842.835-.842h10.019zM60.082 27.235c0 .442.593.146 1.036.146.44 0 1.031.296 1.031-.146 0-.629-.592-.41-1.031-.41-.443 0-1.036-.219-1.036.41zm1.876 1.043c.431 0 .468-.591.468-1.101 0-1.161-.92 0-1.389-1.093-.344.92-1.288.069-1.288 1.058 0 .681-.005 1.136.672 1.136h1.537zm-2.826-5.077l1.918.734 1.881-.734-.745 2.815 1.489-.309-.509 1.706.509 1.639-1.321-.359.577 3.037-1.88-.733-1.919.733.78-3.037-1.526.428.408-1.708-.408-1.637 1.46.24-.714-2.815zM54.652 27.342L54.652 26.985 54.332 26.924 54.583 26.664 54.427 26.376 54.755 26.411 54.955 26.062 55.148 26.405 55.484 26.376 55.327 26.664 55.578 26.924 55.257 26.985 55.257 27.342 54.955 27.116zM53.167 29.253L53.167 28.896 52.847 28.835 53.098 28.575 52.944 28.289 53.269 28.322 53.468 27.973 53.665 28.317 53.998 28.289 53.842 28.575 54.093 28.835 53.772 28.896 53.772 29.253 53.468 29.027zM55.688 29.011L55.688 28.653 55.368 28.593 55.62 28.331 55.461 28.044 55.791 28.079 55.989 27.73 56.185 28.074 56.518 28.044 56.364 28.331 56.613 28.593 56.295 28.653 56.295 29.011 55.989 28.783zM55.985 30.439L55.985 30.238 55.803 30.202 55.946 30.056 55.858 29.892 56.043 29.911 56.155 29.715 56.267 29.908 56.455 29.892 56.366 30.056 56.506 30.202 56.328 30.238 56.328 30.439 56.155 30.31zM53.644 32.072L53.644 31.461 53.093 31.356 53.526 30.908 53.259 30.417 53.821 30.475 54.163 29.877 54.496 30.467 55.069 30.417 54.802 30.908 55.23 31.356 54.683 31.461 54.683 32.072 54.163 31.684zM54.836 0L56.027 2.924 59.039 2.038 57.511 4.795 60.077 6.615 56.981 7.133 57.168 10.286 54.836 8.172 52.503 10.286 52.691 7.133 49.595 6.615 52.162 4.795 50.633 2.036 53.646 2.924zM43.937 65.57c-.36.134-.5.233-.412.603l.426 1.791c.079.333.102.856-.119 1.176-.264.382-.82.628-1.223.726-.296.071-.933.189-1.445-.027-.34-.145-.557-.299-.703-.907l-.446-1.876c-.11-.471-.286-.442-.67-.386l-.033-.138 2.264-.544.035.139c-.44.123-.646.18-.527.673l.444 1.878c.075.319.259 1.095 1.224.864 1.178-.283.99-1.145.901-1.507l-.403-1.714c-.082-.342-.208-.514-.789-.397l-.032-.142 1.474-.353.034.141zM47.293 65.944c-.207-.368-.754-.926-1.548-.748-.35.077-.682.328-.601.696.066.303.222.4.841.512l1.077.19c.25.045.833.258.97.873.108.495-.172 1.275-1.41 1.548-.637.145-.984.02-1.192.064-.142.034-.153.143-.16.24l-.194.043-.307-1.394.194-.043c.26.54.792 1.088 1.645.9.81-.178.72-.746.701-.82-.082-.378-.428-.442-.904-.52l-.49-.08c-1.253-.204-1.359-.69-1.415-.951-.077-.343-.039-1.156 1.239-1.441.539-.12.898-.006 1.093-.048.154-.036.167-.126.178-.24l.203-.046.27 1.225-.19.04zM51.752 68.171l-2.45.235-.014-.143c.497-.082.661-.11.616-.593l-.29-3.031c-.476.069-1.182.165-1.23 1.1l-.2.017-.088-1.159 4.117-.396.123 1.157-.198.019c-.226-.907-.935-.868-1.41-.846l.287 3.032c.048.488.212.486.724.464l.013.144zM54.497 66.119c.903.011 1.261-.11 1.276-.86.014-.584-.266-.838-.816-.85-.377-.006-.394.057-.43.236l-.03 1.474zm2.983 2.052l-1.411-.028-1.39-1.837-.187-.002-.023 1.132c-.006.463.142.482.597.545l-.003.143-2.327-.045v-.146c.472-.036.609-.05.618-.52l.05-2.553c.01-.498-.203-.514-.595-.545l.003-.141 2.217.041c.483.008 1.941.084 1.922 1.057-.012.709-.726.876-1.1.966l1.354 1.675c.093.103.196.113.278.115l-.003.143z" mask="url(#prefix__b)"/>
        <path fill="#231F20" d="M60.086 67.136l-.518-1.479-.816 1.314 1.334.165zm1.915 1.615l-2.214-.277.018-.141c.43.02.552.032.576-.156.018-.158-.146-.608-.22-.804l-1.539-.192c-.243.388-.38.61-.392.701-.028.22.297.275.53.317l-.017.143-1.389-.173.018-.143c.375 0 .494-.184.751-.587l1.91-2.95.192.022 1.15 3.206c.229.654.316.862.644.892l-.018.142zM66.014 69.566l-3.918-.718.025-.142c.387.03.593.05.657-.297l.499-2.753c.067-.375-.208-.436-.51-.51l.025-.141 2.368.434-.028.142c-.476-.068-.689-.103-.779.397l-.486 2.685c-.05.272.09.345.546.43 1.023.186 1.488-.215 1.916-.8l.197.035-.512 1.238zM68.615 70.149l-2.363-.495.033-.142c.368.05.637.08.71-.27l.566-2.736c.077-.373-.238-.45-.546-.534l.03-.142 2.361.497-.03.142c-.32-.057-.644-.116-.724.266l-.567 2.737c-.074.362.192.437.559.537l-.03.14zM71.453 69.189l-.55-1.468-.788 1.33 1.338.138zm1.953 1.574l-2.222-.23.014-.143c.428.016.554.02.572-.17.014-.153-.16-.602-.239-.795l-1.541-.16c-.235.395-.369.618-.378.71-.023.219.305.268.536.304l-.012.146-1.393-.146.014-.143c.377-.01.491-.192.74-.603l1.846-2.992.192.02 1.221 3.182c.243.647.335.853.665.877l-.015.143zM54.583 24.401c-.405 0-.952.279-.952-.202 0-.68.46-.53.869-.53.403 0 1.034-.15 1.034.53 0 .48-.545.202-.95.202m1.203-.266c0-1.39-.779-.089-1.21-1.27-.316 1.001-1.254.16-1.254 1.234 0 .409.108.645.308.778v.41c0 .106.085.193.188.193h1.475c.108 0 .194-.087.194-.193v-.445c.177-.151.299-.392.299-.707M67.876 41.17c.352 0 .637-.25.637-.56 0-.31-.285-.562-.637-.562-.352 0-.637.251-.637.562 0 .31.285.56.637.56M64.881 20.609s-.3.503-.3.598c0 .182.136.331.305.331.164 0 .3-.15.3-.331 0-.011-.305-.598-.305-.598M44.476 20.609s-.301.503-.301.598c0 .182.135.331.306.331.165 0 .3-.15.3-.331 0-.011-.305-.598-.305-.598M49.575 20.609s-.298.503-.298.598c0 .182.137.331.303.331.167 0 .302-.15.302-.331 0-.011-.307-.598-.307-.598M54.677 20.609s-.3.503-.3.598c0 .182.136.331.304.331.167 0 .302-.15.302-.331 0-.011-.306-.598-.306-.598M59.778 20.609s-.299.503-.299.598c0 .182.135.331.304.331.166 0 .303-.15.303-.331 0-.011-.308-.598-.308-.598M44.484 27.607s.299.502.299.596c0 .185-.134.333-.304.333-.166 0-.301-.148-.301-.333 0-.01.306-.596.306-.596M44.484 34.407s.299.503.299.598c0 .181-.134.33-.304.33-.166 0-.301-.149-.301-.33 0-.012.306-.598.306-.598M45.3 39.791s.3.504.3.597c0 .182-.137.333-.306.333-.165 0-.3-.151-.3-.333 0-.01.307-.597.307-.597M49.58 42.652s.3.503.3.598c0 .184-.138.332-.303.332-.168 0-.305-.148-.305-.332 0-.01.308-.598.308-.598M65.14 27.607s-.297.502-.297.596c0 .185.135.333.302.333.166 0 .3-.148.3-.333 0-.01-.305-.596-.305-.596M65.14 34.407s-.297.503-.297.598c0 .181.135.33.302.33.166 0 .3-.149.3-.33 0-.012-.305-.598-.305-.598M64.323 39.791s-.3.504-.3.597c0 .182.138.333.305.333.167 0 .302-.151.302-.333 0-.01-.307-.597-.307-.597M60.044 42.652s-.3.503-.3.598c0 .184.136.332.305.332.166 0 .302-.148.302-.332 0-.01-.307-.598-.307-.598M54.836 45.685s-.299.503-.299.596c0 .184.135.333.304.333.166 0 .301-.15.301-.333 0-.01-.306-.596-.306-.596M63.137 35.541c.064.097.225.129.428.058l.194-.548c.015-.037-.225-.256-.367-.22-.545.128-1.121.192-1.441.71 0 .355.256.679.511.84.194-.065.227.13.356.226.029.162-.066.291-.227.291-.384-.387-1.059.129-1.348-.357.128-.484.386-1.034-.03-1.486.03-.096.19-.192.094-.289-.16-.452-.642-.096-.93-.096-.481-.066-.867.193-1.157.58.032.16.097.323.259.484.129-.032.193 0 .222.13l-.32.193c.098.098.098.227.129.356-.226.098-.448-.226-.546-.388 0-.257.034-.71-.322-.775-.062 0-.278.095-.278.095-.077.096-.13.299-.13.534 0 .228.125.577.125.577s.99.733 1.215 1.185c-.29.58-.29 1.387-.964 1.71-.191.13-.191.324-.191.518l.16.129c.419-.227 1.22-.29 1.157-1 .16-.293.32-.614.609-.841.32-.064.611.096.738.355-.098.486-.418.81-.865.968-.065.066-.034.163-.034.26.129.226.481.13.674.097.546-.357.77-1.001 1.252-1.196.063.323-.642.42-.193.744.29-.064.674.033.867-.357-.223-.548.771-.807.16-1.29 0-.485.513-.68.482-1.197-.191-.516-.803-.516-.964-1 .194-.13.482-.098.675 0M39.692 41.419c.354 0 .637-.251.637-.561 0-.31-.283-.561-.637-.561-.352 0-.637.25-.637.56 0 .311.285.562.637.562M6.606 60.733c.346 0 .626-.268.626-.603 0-.33-.28-.6-.626-.6-.348 0-.63.27-.63.6 0 .335.282.603.63.603M27.752 65.343c-.003-.012-.017-.032-.04-.032-.01 0-.02.007-.02.016 0 .012.004.013.02.02l.028.012c.01.004.024.015.024.031s-.013.037-.052.037c-.016 0-.027-.006-.034-.006-.004 0-.006.001-.006.006h-.006v-.042h.006c.005.018.016.036.043.036.021 0 .025-.017.025-.017 0-.014-.012-.016-.023-.022l-.013-.005c-.037-.014-.037-.03-.037-.037 0-.011.007-.034.045-.034.016 0 .026.005.032.005.007 0 .007-.003.008-.005h.007v.037h-.007zM27.963 65.314c-.006 0-.011.004-.014.008l-.037.103h-.008l-.034-.077-.039.077h-.005l-.04-.103c-.005-.004-.006-.008-.016-.008v-.006h.06v.006c-.009 0-.013 0-.013.007l.001.005.024.062h.002l.02-.051-.004-.018c-.003-.003-.005-.005-.016-.005v-.006h.064v.006c-.01 0-.016 0-.016.005 0 .003.002.007.004.01l.022.056.021-.058c.002-.001.002-.005.002-.006 0-.007-.008-.007-.013-.007v-.006h.035v.006zM28.084 65.343c.02.002.03.002.044.01.01.003.02.015.02.03 0 .023-.02.04-.057.04-.015 0-.028-.004-.028-.012 0-.005.003-.011.011-.011.015 0 .028.014.04.014.005 0 .02-.003.02-.018 0-.008-.011-.017-.02-.022-.014-.005-.032-.005-.046-.006l.02-.06h.064l-.008.023h-.055l-.005.012z" mask="url(#prefix__b)"/>
        <path fill="#231F20" d="M65.912 38.021c-.123 1.36-.584 2.494-1.526 3.134l-8.879 5.638h-.047c-.186.15-.423.242-.684.242-.265 0-.503-.097-.695-.251l-8.86-5.63c-.941-.64-1.405-1.773-1.53-3.133V20.433h22.22V38.02zm.663-18.22v-.013H43.03v.013h-.005l.02 17.979c0 1.834.776 3.437 1.85 3.93l9.056 5.744c.2.229.496.373.825.373.288 0 .543-.112.737-.288l9.195-5.83c1.075-.492 1.852-2.095 1.852-3.93l.018-17.978h-.003z" mask="url(#prefix__b)"/>
        <path fill="#231F20" d="M57.973 46.006l.285-.136c-.118.041-.208.088-.285.136M37.968 69.468l-.853-1.314-.482 1.47 1.335-.156zm2.245 1.112l-2.22.259-.017-.146c.422-.076.544-.097.523-.285-.019-.157-.286-.556-.404-.728l-1.54.18c-.144.434-.228.683-.217.773.026.22.357.198.59.183l.019.142-1.39.162-.018-.144c.366-.089.437-.295.595-.75l1.157-3.32.191-.02 1.875 2.84c.38.58.51.76.838.713l.018.141z" mask="url(#prefix__b)"/>
        <path fill="#231F20" d="M78.326 63.447c-.3.612-.776 1.054-1.45 1.156.03-.817.774-1.394.504-2.312-.438-.647-1.316-.851-2.127-.68-.305.205-.17.543-.272.852l-.136 1.119c-.675 0-.71-.61-.91-1.087.034-.714.338-1.426 1.046-1.769.54-.272 1.42-.238 1.961.07.438.102.948.305 1.114.713.507.474.371 1.327.27 1.938zm-2.734.339c.37-.375-.103-2.516.945-1.122 0 .273.032.681-.238.884-.168.137-.437.41-.707.238zm.37.852c.034.543-.473.407-.743.611h-.811c-.17-.273-.102-.68-.102-.953.54.102 1.148.102 1.656.342zm.945 4.147c-.269.34-.03.884-.37 1.191 0 .611-.509.915-.945 1.156-4.021.883-7.975-.477-11.86-1.156-5.438-1.191-11.79-1.53-17.333-.273-2.602.476-5.133 1.088-7.636 1.804-1.554.2-3.242.44-4.727-.036-1.217-.58-.713-2.141-1.083-3.23.067-.849-.237-1.53-.269-2.346-.103-.273-.17-.61-.135-.886.504.071 1.012.446 1.553.58 2.837.543 5.371-.375 8.007-.85 2.534-.545 5.136-.985 7.806-1.191 3.038-.034 6.147-.203 9.053.307.946.035 1.757.272 2.668.34 1.894.237 3.65.749 5.574.885.306.101.678.101 1.015.169 3.04.476 6.452 1.326 9.358 0 0 1.224-.506 2.346-.676 3.536zm-17.162 2.482c.17.476.473.92.304 1.497-.336.645-1.013.645-1.62.781-.306.036-.544-.067-.779-.24.034-.134-.035-.235-.135-.338.1-.443-.779-.883-.17-1.26.54-.509 1.826-1.662 2.4-.44zm.742.137c.406.103.44.543.473.883-.034.749-.436 1.394-1.149 1.665-.37.206-.944.274-1.316.137.812-.034 1.69-.338 2.029-1.155l-.037-1.53zm.879 4.523c-.068.033-.068.101-.068.135-.978.032-1.62-.545-2.364-1.055l-.034-.17c.911.067 1.655.646 2.466 1.09zm-1.247 3.127c-.037.101-.205.101-.27.034-1.016-1.293-1.49-2.652-2.133-4.081l.137-.034c.81 1.327 1.454 2.787 2.266 4.08zm-1.69-.817l-.172.068c-.168-.134-.102-.51-.066-.714.2.169.373.408.238.646zm-.948-2.04c.034.34.372.477.17.783-.069-.137-.271-.442-.17-.783zm-2.161 2.756c-.642.035-1.624.405-2.23-.137.032-.275-.27-.408-.237-.68.54-.206 1.01.44 1.52-.036.778.036 1.59-.1 2.363.071.373.102.948-.614 1.015.102-.27 1.12-1.622.337-2.431.68zm-1.488-4.049l.169-.272c-.27.816-.678 1.668-1.116 2.45-.202-.818.642-1.464.947-2.178zm.946-.645c.44-.476.846.274 1.013.645.509.75 1.824 1.43 1.318 2.45-.643.576-1.655.033-2.363.475-.372-.034-1.016.067-1.219-.306.372-1.087.712-2.312 1.25-3.264zm-.1-1.292h-.135l.203-.203c.1.066-.037.135-.068.203zm.776.069c.135-.206.305-.512.54-.512 0 .036.034.068.068.103-.203.17-.37.34-.608.409zm.473.51c.067-.068.238-.068.305 0h-.305zm.912 1.053c-.034.069.032.17-.07.238l-.775-.611c.374-.068.642.1.845.373zm1.352-4.182c-.406.136-.71.61-1.115.715.202-.376.71-.75 1.115-.715zm-1.69-.44c-.066-.308.304-.07.44-.207l1.047.07c-.542-.07-1.218 1.188-1.487.136zm-2.467.95c.17-.477.205-.882.509-1.258.338 0 .64 0 .91.137.068.68.915 1.598 0 2.175-.302.137-.744.442-1.08.137-.438-.375-.51-.714-.339-1.192zm-.507 2.109c-.033-.137.068-.307.103-.476.168-.172.337.137.404.238-.1.169-.304.272-.507.238zm-.067-1.565h.034v-.374h-.034v.374zm-.37-1.02c-.441-.102-.678-.612-1.148-.612.403-.136.808-.1 1.281-.033.17.24-.101.44-.133.644zm-.374 2.754c.103-.44.305-1.018.541-1.428-.034.444-.236 1.053-.54 1.428zm-.741 0c-.575-.07-1.116-.238-1.622-.407-.34-.341 0-.714 0-1.09.471-.748 1.823-1.121 2.466-.44-.103.747-.373 1.393-.844 1.937zm.304.92v.134h-.068v-.17h.134c-.034 0-.1 0-.134.035h.068zm-.845 1.969c-.473 1.088-1.015 2.143-1.654 3.198-.07.169-.341.202-.543.238 0-.476.473-.85.678-1.257.708-.919.909-1.904 1.72-2.79.203.203-.201.34-.201.61zm-3.21-.34c.81-.339 1.654-1.054 2.57-.747-.644.51-1.693.714-2.57.748zm1.215-2.345c-.168-1.188.305-2.211 1.084-3.06.472-.103 1.014-.203 1.452.068-.879.238-1.993.442-2.195 1.564.032.442-.103.68.098 1.055.375.645 1.218.373 1.69.882 0 .17-.134.374-.303.409-.576-.34-1.283-.476-1.826-.918zM33.595 62.495c.103-.274 0-.679.373-.748.233-.067.608-.067.639.204-.03.407-.066.814-.166 1.192-.473.032-.711-.238-.846-.648zm.103 1.141c.503.375 1.215.205 1.823.307.1.373.1.848-.169 1.156-.574-.136-1.316-.067-1.622-.61.068-.24-.101-.578-.032-.853zm-1.59-.972c.101-.611.238-1.256.81-1.7.812-.442 1.927-.34 2.67.105.235.133.406.339.541.643.168.579-.103 1.193-.508 1.532h-.337c0-.545 0-1.09.202-1.532-.034-.409-.372-.442-.64-.611-.575-.17-1.082.101-1.523.339-.338.408-.639.918-.436 1.497.235.375.03.884.166 1.291l-.1.137c-.404-.442-.948-.918-.845-1.701zM63.81 77.118c.806.363 2.431.72 3.601.85-.103.462-.928.031-.832.68-1.047-.41-2.264-.612-3.04-1.429.068-.033.137-.136.27-.1zm-21.094.54l-.472-.44c.238-.307.742-.137 1.115-.341.877-.272 1.89-.613 2.873-.407-1.016.815-2.332.917-3.516 1.188zm36.487-15.504c-.402-1.053-1.245-1.767-2.296-2.108-1.082-.238-2.23-.068-2.938.75-1.217.985-.37 2.615-.338 3.943 0 .27.035.475-.235.613-4.9-.444-9.462-1.667-14.328-2.177-1.119-.195-2.239-.142-3.302-.367l-1.358-.144c-4.224.136-8.447.376-12.4 1.395-.845.27-1.793.34-2.636.648-.609-.104-1.114.338-1.69.167l-1.11.26c-.106.02-.23.014-.375-.022-.542-1.394 1.08-2.243.574-3.603-.44-.783-1.32-1.53-2.33-1.394-1.15-.137-2.164.51-2.706 1.394-.776 1.7.204 3.467.508 5.134-.07.543.54 1.158 0 1.598-1.083-.747-2.499-1.156-3.818-.783-.406.206-1.15-.066-1.35.409 1.453.781 3.31.681 4.93.612.204-.067.341-.103.508.036.136.88-.167 2.072.374 2.855.606.817 1.622 1.018 2.599 1.12 3.112-.102 5.878-1.019 8.716-1.734.441-.032.778-.27 1.25-.27 1.521-.34 3.177-.611 4.8-.647-.71.917-1.116 1.938-1.422 3.06-.404.918.712 1.053 1.048 1.565-1.048.305-1.79 1.019-2.768 1.427-2.163-.067-3.989.748-6.015.986-.035.442.71.305.779.746-.105.307-.406.342-.644.513-.032.202 0 .236.203.272.203-.237.642-.07.846-.308.676 0 1.248-.204 1.89-.236.576-.241 1.216-.273 1.725-.682.708-.202 1.15-.68 1.857-.882 1.013 0 1.926-.34 2.872-.409v.203c-.777 1.26-1.588 2.552-2.4 3.74-.135.24.034.477.237.545.473.136.945 0 1.32-.203.708-1.223 1.35-2.381 1.924-3.638.238-1.158 1.08-1.769 1.926-2.55.134-.07.337-.272.472-.07-.676.782-1.115 1.53-1.62 2.382-.27.95-.338 2.175.505 2.957.407.34 1.014.237 1.556.273 1.316-.68 3.006.407 4.021-.884.607-.105.706.61 1.044.951.576.17 1.185.75 1.758.34-.034-.373-.44-.716-.64-1.053-.406-.713-.915-1.293-1.285-1.94-.17-.474-.473-.781-.54-1.258.608.205 1.148.614 1.824.715.573.238 1.283.204 1.823.543.443.58 1.117.92 1.69 1.293.845.409 1.79.476 2.668.817.34.034.848.304 1.081 0-.135-.17-.302-.272-.505-.375-.103-.442.608-.204.843-.543-.082-.167-.228-.235-.39-.259-.485-.257-1.689-.349-2.009-.523-.404-.069-.776-.24-1.18-.374-2.027 0-3.144-1.836-4.763-2.516.369-.34.943-.613 1.18-1.123.304-.476.405-1.257.101-1.8-.304-1.055-1.656-.922-2.431-1.496l.101-.103c1.318-.067 2.467.237 3.648.475 3.243.442 6.252 1.667 9.63 1.734 1.856 0 4.19.102 5.1-1.7.17-1.055.374-2.109.543-3.163.404-1.698 1.519-3.261 1.348-5.134zM119.938 51.316L455.528 51.316 455.528 50.23 119.938 50.23zM128 69.082l-2.017-4.658-2.076 4.658H128zm.339.738h-4.78l-.569 1.315c-.187.44-.281.802-.281 1.089 0 .378.156.657.46.839.18.104.622.183 1.327.238v.368h-4.502v-.368c.486-.072.885-.273 1.2-.603.31-.331.697-1.01 1.157-2.04l4.84-10.792h.19l4.881 11.09c.465 1.05.848 1.711 1.147 1.986.227.205.546.325.96.359v.368h-6.547v-.368h.27c.524 0 .892-.072 1.105-.22.148-.106.22-.26.22-.459 0-.12-.02-.242-.06-.37-.012-.057-.112-.308-.299-.747l-.719-1.685zM140.777 64.085l.15 3.182h-.34c-.406-.946-.827-1.59-1.26-1.936-.438-.346-.87-.518-1.305-.518-.274 0-.504.09-.698.274-.194.181-.29.394-.29.633 0 .179.066.352.2.518.213.273.81.741 1.786 1.402.98.662 1.622 1.223 1.932 1.685.31.463.464.98.464 1.551 0 .518-.13 1.026-.39 1.526-.259.499-.624.881-1.096 1.147-.473.265-.996.398-1.569.398-.444 0-1.04-.138-1.786-.418-.2-.072-.334-.109-.41-.109-.219 0-.402.166-.549.498h-.33l-.159-3.35h.34c.3.878.71 1.534 1.232 1.974.523.438 1.019.658 1.484.658.318 0 .58-.098.782-.294.203-.197.304-.435.304-.713 0-.32-.1-.595-.3-.828-.199-.233-.643-.585-1.337-1.058-1.018-.704-1.676-1.243-1.976-1.616-.439-.545-.658-1.148-.658-1.804 0-.718.246-1.368.742-1.95.499-.584 1.215-.873 2.153-.873.505 0 .993.122 1.466.37.18.1.327.15.441.15.12 0 .214-.026.288-.076.072-.05.19-.188.35-.423h.339zM146.038 66.169v4.15c0 .843.02 1.38.06 1.614.065.394.225.71.479.953.253.244.576.363.969.363.338 0 .629-.096.872-.287.243-.195.446-.578.608-1.147.166-.574.246-1.604.246-3.093 0-1.43-.18-2.41-.539-2.941-.26-.386-.61-.58-1.049-.58-.573 0-1.122.323-1.646.968zm0-6.023v5.137c.785-.814 1.643-1.22 2.576-1.22.636 0 1.24.19 1.804.565.566.375 1.012.909 1.328 1.602.321.69.48 1.488.48 2.392 0 1.016-.204 1.942-.61 2.772-.406.833-.945 1.466-1.626 1.902-.677.434-1.455.651-2.325.651-.506 0-.956-.079-1.349-.238-.392-.16-.777-.42-1.157-.78l-1.548 1.01h-.34V62.08c0-.536-.022-.87-.067-.998-.067-.186-.172-.323-.317-.413-.141-.09-.383-.14-.722-.156v-.366h3.873zM158.836 68.004c0-1.07-.06-1.807-.176-2.206-.119-.399-.297-.7-.543-.907-.139-.119-.326-.178-.559-.178-.347 0-.63.17-.848.508-.394.593-.589 1.404-.589 2.434v.349h2.715zm2.452.669h-5.117c.06 1.236.39 2.212.988 2.931.457.553 1.01.826 1.654.826.4 0 .763-.109 1.09-.33.325-.224.676-.625 1.047-1.203l.338.22c-.502 1.03-1.063 1.759-1.677 2.188-.61.428-1.32.643-2.125.643-1.383 0-2.432-.532-3.143-1.596-.573-.857-.856-1.922-.856-3.192 0-1.555.418-2.794 1.262-3.714.84-.921 1.828-1.381 2.959-1.381.944 0 1.765.387 2.459 1.16.696.776 1.07 1.924 1.121 3.448zM167.95 64.085l.15 3.182h-.34c-.405-.946-.829-1.59-1.263-1.936-.438-.346-.869-.518-1.302-.518-.275 0-.505.09-.698.274-.195.181-.29.394-.29.633 0 .179.066.352.2.518.212.273.808.741 1.786 1.402.98.662 1.622 1.223 1.93 1.685.311.463.464.98.464 1.551 0 .518-.13 1.026-.39 1.526-.258.499-.622.881-1.095 1.147-.473.265-.996.398-1.567.398-.446 0-1.041-.138-1.786-.418-.2-.072-.337-.109-.41-.109-.221 0-.403.166-.55.498h-.33l-.159-3.35h.338c.301.878.712 1.534 1.234 1.974.523.438 1.017.658 1.483.658.32 0 .58-.098.783-.294.205-.197.304-.435.304-.713 0-.32-.098-.595-.297-.828-.2-.233-.647-.585-1.34-1.058-1.018-.704-1.676-1.243-1.977-1.616-.438-.545-.66-1.148-.66-1.804 0-.718.25-1.368.745-1.95.498-.584 1.215-.873 2.152-.873.505 0 .994.122 1.466.37.178.1.326.15.44.15.121 0 .216-.026.289-.076.072-.05.19-.188.349-.423h.341zM173.3 60.933v3.412h2.217v.987H173.3v5.753c0 .54.026.887.074 1.043.051.156.138.283.265.38.127.096.242.144.351.144.431 0 .84-.33 1.225-.987l.3.219c-.538 1.278-1.412 1.915-2.624 1.915-.594 0-1.096-.164-1.501-.494-.412-.328-.671-.696-.785-1.101-.066-.225-.1-.838-.1-1.835v-5.037h-1.218v-.35c.838-.592 1.552-1.211 2.143-1.864.587-.651 1.1-1.38 1.542-2.185h.328zM180.44 64.773c-.34 0-.634.13-.874.384-.243.257-.404.76-.48 1.516-.078.756-.114 1.802-.114 3.148 0 .71.045 1.375.139 1.994.074.471.23.831.47 1.077.24.246.511.368.819.368.299 0 .547-.082.746-.247.261-.229.435-.544.522-.949.132-.632.2-1.91.2-3.83 0-1.13-.064-1.907-.192-2.33-.127-.42-.312-.73-.559-.92-.175-.14-.399-.211-.677-.211m-.04-.708c.81 0 1.567.21 2.265.629.697.418 1.228 1.014 1.592 1.786.362.77.544 1.613.544 2.53 0 1.326-.335 2.432-1.008 3.323-.812 1.079-1.934 1.616-3.364 1.616-1.404 0-2.485-.492-3.244-1.476-.758-.984-1.137-2.124-1.137-3.42 0-1.338.387-2.504 1.162-3.497.774-.994 1.838-1.49 3.19-1.49M191.71 64.085l.15 3.182h-.34c-.405-.946-.828-1.59-1.263-1.936-.438-.346-.869-.518-1.303-.518-.274 0-.504.09-.697.274-.195.181-.29.394-.29.633 0 .179.066.352.2.518.212.273.808.741 1.786 1.402.978.662 1.62 1.223 1.93 1.685.312.463.464.98.464 1.551 0 .518-.13 1.026-.389 1.526-.26.499-.623.881-1.096 1.147-.473.265-.996.398-1.567.398-.446 0-1.041-.138-1.786-.418-.2-.072-.337-.109-.41-.109-.223 0-.403.166-.55.498h-.33l-.159-3.35h.338c.301.878.712 1.534 1.235 1.974.521.438 1.017.658 1.482.658.32 0 .579-.098.783-.294.203-.197.304-.435.304-.713 0-.32-.098-.595-.297-.828-.201-.233-.647-.585-1.34-1.058-1.02-.704-1.676-1.243-1.977-1.616-.437-.545-.66-1.148-.66-1.804 0-.718.25-1.368.746-1.95.497-.584 1.214-.873 2.15-.873.506 0 .995.122 1.467.37.179.1.327.15.44.15.122 0 .216-.026.289-.076.072-.05.19-.188.35-.423h.34zM206.972 59.836l.11 4.508h-.41c-.194-1.13-.667-2.038-1.423-2.728-.753-.687-1.57-1.032-2.45-1.032-.679 0-1.216.181-1.61.545-.398.362-.596.78-.596 1.25 0 .3.07.565.211.798.192.312.502.622.927.928.312.219 1.036.61 2.168 1.166 1.581.778 2.65 1.513 3.202 2.206.545.69.819 1.48.819 2.373 0 1.13-.441 2.101-1.323 2.916-.882.815-2 1.222-3.36 1.222-.425 0-.827-.043-1.207-.128-.378-.087-.854-.25-1.425-.49-.32-.133-.583-.2-.79-.2-.174 0-.356.067-.55.2-.19.133-.348.337-.469.607h-.37v-5.103h.37c.296 1.434.858 2.529 1.693 3.285.835.755 1.734 1.131 2.7 1.131.743 0 1.339-.202 1.781-.609.443-.403.663-.878.663-1.415 0-.318-.085-.628-.252-.93-.17-.298-.43-.583-.774-.85-.346-.27-.956-.62-1.838-1.053-1.231-.606-2.114-1.12-2.655-1.545-.54-.424-.953-.902-1.242-1.426-.29-.527-.435-1.105-.435-1.737 0-1.075.396-1.995 1.19-2.75.791-.761 1.789-1.139 2.992-1.139.44 0 .864.053 1.28.16.312.08.693.228 1.142.443.449.217.763.325.941.325.174 0 .311-.053.41-.16.1-.107.194-.363.28-.768h.3zM214.17 71.566v-3.123c-.807.473-1.405.978-1.795 1.515-.259.362-.39.724-.39 1.089 0 .305.109.574.33.807.165.18.4.27.697.27.333 0 .72-.187 1.157-.558m0 .728c-1.139 1.002-2.16 1.505-3.063 1.505-.532 0-.976-.173-1.328-.524-.352-.347-.53-.786-.53-1.31 0-.713.306-1.353.921-1.92.611-.57 1.947-1.325 4-2.269v-.939c0-.704-.037-1.148-.112-1.331-.078-.183-.224-.34-.436-.478-.213-.136-.454-.205-.72-.205-.433 0-.785.096-1.068.289-.172.12-.258.259-.258.42 0 .138.092.312.28.517.253.287.377.563.377.828 0 .327-.118.603-.364.835-.243.228-.558.342-.95.342-.42 0-.772-.127-1.056-.377-.282-.255-.424-.549-.424-.89 0-.479.192-.935.568-1.37.38-.435.911-.77 1.589-1.003.679-.233 1.385-.349 2.117-.349.884 0 1.584.188 2.1.565.515.373.852.781 1.004 1.22.09.28.139.921.139 1.926v3.62c0 .426.016.692.051.803.032.11.082.19.148.243.066.055.144.08.23.08.171 0 .351-.123.528-.37l.301.242c-.331.49-.676.849-1.035 1.07-.357.224-.76.335-1.211.335-.533 0-.95-.124-1.249-.373-.3-.25-.481-.628-.549-1.132M222.927 65.321v6.474c0 .625.066 1.017.198 1.176.214.246.607.359 1.178.34v.358h-5.5v-.358c.418-.007.717-.055.893-.147.177-.088.3-.213.365-.373.068-.16.098-.492.098-.996V65.32h-1.356v-.977h1.356v-.688l-.011-.468c0-.959.352-1.756 1.056-2.393.701-.64 1.65-.96 2.85-.96.818 0 1.425.155 1.821.462.394.304.594.643.594 1.014 0 .3-.123.56-.369.78-.246.217-.574.328-.978.328-.348 0-.62-.09-.824-.268-.203-.18-.306-.38-.306-.6 0-.058.021-.182.061-.368.028-.114.04-.22.04-.32 0-.138-.04-.241-.12-.309-.105-.1-.235-.15-.39-.15-.193 0-.355.081-.484.24-.13.16-.195.417-.195.767l.023 1.746v1.187h1.376v.977h-1.376zM230.682 68.004c0-1.07-.06-1.807-.175-2.206-.116-.399-.298-.7-.544-.907-.139-.119-.325-.178-.559-.178-.346 0-.627.17-.848.508-.394.593-.589 1.404-.589 2.434v.349h2.715zm2.454.669h-5.119c.061 1.236.39 2.212.988 2.931.459.553 1.01.826 1.656.826.4 0 .763-.109 1.09-.33.325-.224.674-.625 1.047-1.203l.338.22c-.504 1.03-1.064 1.759-1.675 2.188-.612.428-1.321.643-2.126.643-1.385 0-2.433-.532-3.144-1.596-.573-.857-.858-1.922-.858-3.192 0-1.555.42-2.794 1.262-3.714.841-.921 1.828-1.381 2.959-1.381.945 0 1.765.387 2.46 1.16.696.776 1.07 1.924 1.122 3.448zM237.601 60.933v3.412h2.217v.987h-2.217v5.753c0 .54.026.887.074 1.043.052.156.138.283.266.38.127.096.241.144.35.144.432 0 .84-.33 1.227-.987l.3.219c-.539 1.278-1.414 1.915-2.626 1.915-.593 0-1.096-.164-1.501-.494-.412-.328-.671-.696-.785-1.101-.066-.225-.1-.838-.1-1.835v-5.037h-1.218v-.35c.838-.592 1.553-1.211 2.143-1.864.588-.651 1.1-1.38 1.542-2.185h.328z" mask="url(#prefix__b)"/>
        <path fill="#231F20" d="M244.577 74.048l-3.013-6.913c-.452-1.043-.788-1.685-1.002-1.924-.219-.24-.481-.405-.784-.499v-.37h4.961v.37c-.33.013-.558.076-.69.192-.134.112-.201.246-.201.407 0 .254.166.752.499 1.496l1.598 3.65 1.089-2.821c.393-1.005.589-1.703.589-2.095 0-.246-.08-.441-.246-.59-.161-.145-.45-.226-.864-.239v-.37h3.125v.37c-.308.034-.554.153-.747.354-.192.203-.518.894-.97 2.07l-2.664 6.912c-.672 1.728-1.174 2.792-1.5 3.191-.455.56-1.032.838-1.724.838-.555 0-1.001-.158-1.342-.474-.345-.316-.514-.697-.514-1.142 0-.386.12-.706.354-.957.234-.252.525-.38.872-.38.334 0 .6.107.802.32.204.211.309.543.317.988.006.252.035.415.087.487.056.074.133.111.235.111.157 0 .328-.096.503-.29.267-.279.583-.917.94-1.916l.29-.776zM259.963 71.566v-3.123c-.807.473-1.405.978-1.798 1.515-.257.362-.39.724-.39 1.089 0 .305.11.574.33.807.168.18.401.27.7.27.334 0 .718-.187 1.158-.558m0 .728c-1.14 1.002-2.16 1.505-3.066 1.505-.532 0-.975-.173-1.326-.524-.355-.347-.53-.786-.53-1.31 0-.713.303-1.353.918-1.92.613-.57 1.949-1.325 4.004-2.269v-.939c0-.704-.04-1.148-.115-1.331-.078-.183-.222-.34-.437-.478-.21-.136-.45-.205-.716-.205-.433 0-.787.096-1.069.289-.174.12-.259.259-.259.42 0 .138.093.312.277.517.256.287.381.563.381.828 0 .327-.122.603-.365.835-.241.228-.558.342-.95.342-.423 0-.773-.127-1.055-.377-.285-.255-.425-.549-.425-.89 0-.479.188-.935.57-1.37.376-.435.91-.77 1.586-1.003.68-.233 1.386-.349 2.118-.349.883 0 1.582.188 2.1.565.513.373.85.781 1.003 1.22.091.28.14.921.14 1.926v3.62c0 .426.017.692.051.803.034.11.08.19.148.243.066.055.143.08.229.08.173 0 .352-.123.529-.37l.3.242c-.334.49-.677.849-1.032 1.07-.359.224-.761.335-1.214.335-.53 0-.949-.124-1.248-.373-.3-.25-.481-.628-.547-1.132M268.436 64.344v1.206c.481-.516.938-.896 1.379-1.13.44-.237.912-.354 1.416-.354.607 0 1.109.167 1.508.501.399.336.666.755.798 1.253.108.378.16 1.108.16 2.185v3.629c0 .719.067 1.166.195 1.342.13.177.4.287.813.335v.358h-4.72v-.358c.351-.048.606-.193.758-.439.107-.167.158-.579.158-1.238v-4.148c0-.764-.029-1.246-.088-1.446-.062-.2-.163-.355-.303-.464-.145-.11-.304-.164-.478-.164-.568 0-1.1.408-1.596 1.226v4.996c0 .698.066 1.141.196 1.328.129.185.37.3.724.349v.358h-4.721v-.358c.393-.04.673-.166.84-.381.111-.145.166-.577.166-1.296v-5.266c0-.704-.063-1.143-.192-1.317-.13-.172-.404-.284-.814-.337v-.37h3.8zM281.864 66.468c-.494-.943-1.096-1.416-1.804-1.416-.248 0-.452.066-.61.2-.248.207-.447.568-.603 1.086-.161.52-.237 1.314-.237 2.385 0 1.177.087 2.046.26 2.612.171.565.41.975.707 1.229.153.125.364.188.63.188.588 0 1.139-.458 1.657-1.376v-4.908zm2.793-6.322v10.731c0 .724.023 1.155.063 1.286.053.219.151.383.304.49.148.107.41.173.782.199v.328l-3.942.768v-1.476c-.47.572-.893.962-1.26 1.167-.372.206-.789.31-1.254.31-1.192 0-2.135-.533-2.825-1.596-.559-.865-.84-1.924-.84-3.18 0-1.005.175-1.904.518-2.7.346-.794.82-1.394 1.422-1.8.602-.404 1.252-.608 1.94-.608.45 0 .846.088 1.193.259.343.173.713.477 1.106.908V62.42c0-.71-.032-1.142-.09-1.288-.08-.191-.2-.336-.358-.428-.16-.093-.458-.14-.9-.14v-.418h4.141zM296.13 60.924v5.505h.27c.857 0 1.479-.27 1.866-.808.385-.539.633-1.335.736-2.383h.381v7.08h-.381c-.077-.77-.248-1.403-.502-1.893-.256-.494-.555-.825-.895-.995-.336-.17-.832-.253-1.476-.253v3.81c0 .745.03 1.199.092 1.366.068.165.185.302.356.41.174.104.457.159.838.159h.81c1.264 0 2.278-.293 3.04-.878.76-.585 1.307-1.474 1.64-2.672h.37l-.61 4.298H290.97v-.37h.447c.396 0 .71-.07.95-.21.173-.092.309-.252.399-.477.074-.16.11-.58.11-1.257v-8.898c0-.61-.017-.985-.05-1.127-.067-.232-.19-.41-.37-.537-.252-.187-.6-.28-1.039-.28h-.447v-.368h11.327v3.999h-.377c-.193-.976-.467-1.679-.814-2.103-.35-.428-.843-.74-1.482-.94-.373-.118-1.072-.178-2.097-.178h-1.397zM308.347 64.344v2.114c.62-.963 1.162-1.604 1.629-1.92.465-.316.91-.472 1.345-.472.372 0 .673.114.893.344.222.228.333.553.333.973 0 .445-.108.79-.322 1.035-.219.246-.48.37-.783.37-.356 0-.66-.113-.92-.34-.26-.226-.41-.351-.46-.379-.067-.038-.143-.06-.228-.06-.191 0-.378.073-.552.221-.269.225-.476.548-.616.966-.216.647-.319 1.357-.319 2.135v2.145l.007.557c0 .38.027.622.07.73.084.18.2.31.358.394.153.082.42.133.795.154v.358h-5.045v-.358c.407-.032.682-.146.825-.335.144-.19.213-.69.213-1.5v-5.158c0-.532-.026-.87-.079-1.017-.066-.185-.164-.32-.29-.409-.125-.085-.347-.146-.67-.178v-.37h3.816zM318.288 71.566v-3.123c-.806.473-1.405.978-1.796 1.515-.259.362-.387.724-.387 1.089 0 .305.11.574.33.807.164.18.399.27.696.27.333 0 .72-.187 1.157-.558m0 .728c-1.139 1.002-2.16 1.505-3.064 1.505-.53 0-.973-.173-1.327-.524-.35-.347-.53-.786-.53-1.31 0-.713.31-1.353.923-1.92.61-.57 1.943-1.325 3.998-2.269v-.939c0-.704-.035-1.148-.112-1.331-.08-.183-.224-.34-.435-.478-.214-.136-.455-.205-.72-.205-.434 0-.788.096-1.068.289-.172.12-.259.259-.259.42 0 .138.092.312.282.517.25.287.375.563.375.828 0 .327-.118.603-.362.835-.245.228-.56.342-.953.342-.417 0-.77-.127-1.055-.377-.28-.255-.424-.549-.424-.89 0-.479.193-.935.568-1.37.382-.435.911-.77 1.59-1.003.676-.233 1.384-.349 2.115-.349.885 0 1.586.188 2.101.565.518.373.85.781 1.006 1.22.09.28.138.921.138 1.926v3.62c0 .426.015.692.05.803.032.11.084.19.15.243.066.055.141.08.23.08.169 0 .348-.123.528-.37l.3.242c-.332.49-.675.849-1.036 1.07-.355.224-.758.335-1.213.335-.53 0-.946-.124-1.244-.373-.3-.25-.486-.628-.552-1.132M329.232 66.468c-.494-.943-1.096-1.416-1.809-1.416-.243 0-.446.066-.608.2-.245.207-.45.568-.604 1.086-.156.52-.233 1.314-.233 2.385 0 1.177.084 2.046.26 2.612.173.565.41.975.709 1.229.151.125.362.188.629.188.584 0 1.134-.458 1.656-1.376v-4.908zm2.793-6.322v10.731c0 .724.02 1.155.058 1.286.055.219.158.383.306.49.151.107.414.173.784.199v.328l-3.941.768v-1.476c-.473.572-.896.962-1.265 1.167-.372.206-.787.31-1.254.31-1.19 0-2.13-.533-2.824-1.596-.558-.865-.835-1.924-.835-3.18 0-1.005.17-1.904.517-2.7.349-.794.822-1.394 1.424-1.8.603-.404 1.25-.608 1.939-.608.446 0 .845.088 1.19.259.345.173.715.477 1.108.908V62.42c0-.71-.03-1.142-.09-1.288-.08-.191-.2-.336-.36-.428-.16-.093-.46-.14-.9-.14v-.418h4.143zM336.16 59.827c.433 0 .797.15 1.098.453.297.302.45.666.45 1.092 0 .426-.153.788-.454 1.087-.305.299-.669.448-1.094.448-.426 0-.788-.15-1.09-.448-.297-.3-.448-.661-.448-1.087 0-.426.151-.79.449-1.092.3-.302.663-.453 1.09-.453zm1.395 4.518v7.39c0 .659.08 1.08.232 1.262.153.183.454.287.896.315v.357h-5.036v-.357c.408-.016.716-.134.915-.36.134-.155.201-.558.201-1.218V66.29c0-.659-.078-1.079-.231-1.262-.15-.183-.45-.288-.885-.313v-.37h3.908zM346.799 71.267l.31.238c-.439.826-.986 1.439-1.641 1.84-.658.401-1.353.604-2.092.604-1.247 0-2.241-.47-2.983-1.407-.747-.938-1.12-2.065-1.12-3.381 0-1.269.34-2.386 1.02-3.351.816-1.163 1.944-1.745 3.382-1.745.964 0 1.733.241 2.3.729.57.485.854 1.025.854 1.624 0 .379-.115.681-.344.91-.23.225-.53.337-.903.337-.39 0-.716-.128-.972-.387-.259-.26-.418-.724-.476-1.388-.042-.418-.137-.71-.29-.878-.15-.165-.331-.247-.539-.247-.318 0-.592.169-.817.506-.348.511-.521 1.298-.521 2.356 0 .876.14 1.715.421 2.516.278.802.661 1.399 1.146 1.791.367.286.8.43 1.298.43.325 0 .636-.078.927-.23.296-.153.64-.443 1.04-.867M352.998 71.566v-3.123c-.806.473-1.405.978-1.794 1.515-.26.362-.39.724-.39 1.089 0 .305.11.574.33.807.165.18.4.27.697.27.333 0 .72-.187 1.157-.558m0 .728c-1.14 1.002-2.16 1.505-3.064 1.505-.53 0-.973-.173-1.327-.524-.351-.347-.53-.786-.53-1.31 0-.713.31-1.353.922-1.92.61-.57 1.946-1.325 4-2.269v-.939c0-.704-.036-1.148-.113-1.331-.08-.183-.224-.34-.435-.478-.214-.136-.455-.205-.72-.205-.434 0-.786.096-1.068.289-.172.12-.259.259-.259.42 0 .138.092.312.282.517.25.287.375.563.375.828 0 .327-.116.603-.362.835-.245.228-.56.342-.953.342-.417 0-.77-.127-1.055-.377-.28-.255-.424-.549-.424-.89 0-.479.193-.935.568-1.37.382-.435.911-.77 1.59-1.003.678-.233 1.384-.349 2.115-.349.885 0 1.586.188 2.101.565.518.373.85.781 1.006 1.22.09.28.138.921.138 1.926v3.62c0 .426.015.692.05.803.032.11.084.19.15.243.067.055.141.08.23.08.169 0 .348-.123.528-.37l.3.242c-.33.49-.675.849-1.036 1.07-.354.224-.758.335-1.211.335-.533 0-.947-.124-1.246-.373-.3-.25-.484-.628-.552-1.132M361.365 60.933v3.412h2.217v.987h-2.217v5.753c0 .54.027.887.074 1.043.051.156.14.283.265.38.126.096.245.144.352.144.432 0 .839-.33 1.227-.987l.299.219c-.54 1.278-1.414 1.915-2.625 1.915-.595 0-1.094-.164-1.503-.494-.41-.328-.67-.696-.785-1.101-.066-.225-.098-.838-.098-1.835v-5.037h-1.218v-.35c.84-.592 1.554-1.211 2.14-1.864.589-.651 1.102-1.38 1.542-2.185h.33zM366.308 59.827c.433 0 .797.15 1.098.453.297.302.452.666.452 1.092 0 .426-.155.788-.455 1.087-.305.299-.67.448-1.095.448-.426 0-.787-.15-1.089-.448-.298-.3-.449-.661-.449-1.087 0-.426.151-.79.449-1.092.302-.302.663-.453 1.09-.453zm1.395 4.518v7.39c0 .659.08 1.08.232 1.262.153.183.454.287.897.315v.357h-5.037v-.357c.409-.016.718-.134.917-.36.132-.155.2-.558.2-1.218V66.29c0-.659-.08-1.079-.232-1.262-.15-.183-.45-.288-.885-.313v-.37h3.908zM373.776 64.773c-.34 0-.634.13-.872.384-.245.257-.404.76-.482 1.516-.078.756-.114 1.802-.114 3.148 0 .71.049 1.375.14 1.994.074.471.229.831.47 1.077.24.246.51.368.818.368.299 0 .548-.082.748-.247.26-.229.434-.544.52-.949.132-.632.2-1.91.2-3.83 0-1.13-.064-1.907-.19-2.33-.128-.42-.315-.73-.558-.92-.175-.14-.399-.211-.68-.211m-.04-.708c.81 0 1.567.21 2.265.629.697.418 1.23 1.014 1.593 1.786.362.77.544 1.613.544 2.53 0 1.326-.336 2.432-1.009 3.323-.81 1.079-1.934 1.616-3.364 1.616-1.402 0-2.485-.492-3.243-1.476s-1.138-2.124-1.138-3.42c0-1.338.388-2.504 1.164-3.497.772-.994 1.837-1.49 3.188-1.49M382.96 64.344v1.206c.48-.516.936-.896 1.377-1.13.437-.237.91-.354 1.416-.354.606 0 1.11.167 1.51.501.398.336.665.755.797 1.253.103.378.16 1.108.16 2.185v3.629c0 .719.062 1.166.193 1.342.132.177.402.287.816.335v.358h-4.725v-.358c.356-.048.607-.193.761-.439.105-.167.158-.579.158-1.238v-4.148c0-.764-.027-1.246-.087-1.446-.064-.2-.163-.355-.309-.464-.143-.11-.298-.164-.473-.164-.571 0-1.104.408-1.595 1.226v4.996c0 .698.061 1.141.195 1.328.129.185.37.3.72.349v.358h-4.719v-.358c.391-.04.673-.166.837-.381.117-.145.172-.577.172-1.296v-5.266c0-.704-.066-1.143-.196-1.317-.129-.172-.4-.284-.813-.337v-.37h3.804zM401.158 69.082l-2.018-4.658-2.074 4.658h4.092zm.34.738h-4.783l-.57 1.315c-.184.44-.278.802-.278 1.089 0 .378.153.657.459.839.182.104.621.183 1.327.238v.368h-4.502v-.368c.488-.072.887-.273 1.197-.603.316-.331.699-1.01 1.162-2.04l4.839-10.792h.188l4.884 11.09c.465 1.05.846 1.711 1.146 1.986.225.205.547.325.957.359v.368h-6.548v-.368h.27c.525 0 .895-.072 1.11-.22.144-.106.218-.26.218-.459 0-.12-.02-.242-.06-.37-.014-.057-.114-.308-.299-.747l-.717-1.685zM412.297 64.684c-.383 0-.708.195-.974.582-.267.39-.4 1.196-.4 2.42 0 .989.13 1.669.392 2.039.265.37.574.553.935.553.399 0 .732-.182.998-.549.267-.365.399-1.075.399-2.133 0-1.19-.153-2.002-.45-2.433-.212-.32-.513-.479-.9-.479m-.586 10.361c-.68 0-1.128.058-1.345.17-.382.208-.572.486-.572.84 0 .337.195.646.59.921.39.275 1.13.413 2.213.413.929 0 1.651-.122 2.18-.37.529-.244.794-.59.794-1.035 0-.166-.045-.307-.146-.42-.182-.2-.452-.336-.816-.408-.364-.074-1.33-.111-2.898-.111m2.315-10.593h3.143v1.099h-1.786c.327.326.553.622.677.887.163.359.24.737.24 1.127 0 .666-.185 1.243-.552 1.732-.372.489-.874.871-1.508 1.146-.635.277-1.2.414-1.692.414-.039 0-.438-.017-1.198-.05-.297 0-.55.098-.754.296-.203.196-.303.43-.303.7 0 .242.09.438.275.59.179.153.48.229.893.229l1.729-.02c1.396 0 2.359.153 2.883.46.75.425 1.125 1.081 1.125 1.964 0 .564-.174 1.079-.515 1.542-.347.461-.803.802-1.37 1.02-.855.327-1.847.491-2.965.491-.837 0-1.604-.082-2.296-.246-.689-.162-1.186-.388-1.484-.679-.3-.287-.452-.593-.452-.911 0-.304.116-.58.343-.822.231-.244.658-.448 1.284-.614-.866-.426-1.299-1.018-1.299-1.777 0-.458.177-.903.531-1.334.353-.433.911-.81 1.679-1.127-.892-.327-1.54-.756-1.94-1.288-.399-.532-.598-1.147-.598-1.846 0-.908.375-1.7 1.122-2.368.743-.668 1.699-1.002 2.872-1.002.621 0 1.255.13 1.916.387M423.3 68.004c0-1.07-.06-1.807-.174-2.206-.12-.399-.3-.7-.544-.907-.14-.119-.325-.178-.56-.178-.347 0-.627.17-.848.508-.39.593-.589 1.404-.589 2.434v.349h2.715zm2.452.669h-5.117c.063 1.236.391 2.212.99 2.931.457.553 1.009.826 1.655.826.4 0 .763-.109 1.087-.33.325-.224.677-.625 1.049-1.203l.336.22c-.5 1.03-1.064 1.759-1.673 2.188-.612.428-1.318.643-2.126.643-1.386 0-2.433-.532-3.146-1.596-.571-.857-.856-1.922-.856-3.192 0-1.555.42-2.794 1.263-3.714.839-.921 1.827-1.381 2.958-1.381.946 0 1.765.387 2.46 1.16.697.776 1.069 1.924 1.12 3.448zM430.327 64.344v1.206c.481-.516.938-.896 1.378-1.13.44-.237.914-.354 1.416-.354.606 0 1.11.167 1.509.501.4.336.666.755.798 1.253.106.378.16 1.108.16 2.185v3.629c0 .719.067 1.166.196 1.342.129.177.399.287.812.335v.358h-4.72v-.358c.352-.048.606-.193.759-.439.106-.167.157-.579.157-1.238v-4.148c0-.764-.029-1.246-.088-1.446-.061-.2-.163-.355-.303-.464-.146-.11-.304-.164-.48-.164-.566 0-1.098.408-1.594 1.226v4.996c0 .698.066 1.141.196 1.328.13.185.37.3.723.349v.358h-4.72v-.358c.393-.04.673-.166.84-.381.111-.145.166-.577.166-1.296v-5.266c0-.704-.063-1.143-.191-1.317-.13-.172-.404-.284-.815-.337v-.37h3.801zM445.092 71.267l.306.238c-.434.826-.986 1.439-1.64 1.84-.655.401-1.353.604-2.088.604-1.247 0-2.243-.47-2.988-1.407-.744-.938-1.116-2.065-1.116-3.381 0-1.269.34-2.386 1.016-3.351.82-1.163 1.948-1.745 3.387-1.745.964 0 1.73.241 2.298.729.571.485.856 1.025.856 1.624 0 .379-.117.681-.344.91-.234.225-.533.337-.906.337-.393 0-.718-.128-.972-.387-.256-.26-.415-.724-.473-1.388-.044-.418-.137-.71-.293-.878-.153-.165-.333-.247-.536-.247-.322 0-.595.169-.822.506-.345.511-.517 1.298-.517 2.356 0 .876.14 1.715.419 2.516.28.802.66 1.399 1.148 1.791.367.286.8.43 1.297.43.325 0 .638-.078.929-.23.293-.153.64-.443 1.04-.867M450.423 74.048l-3.017-6.913c-.451-1.043-.784-1.685-1.001-1.924-.214-.24-.477-.405-.782-.499v-.37h4.959v.37c-.325.013-.555.076-.687.192-.134.112-.2.246-.2.407 0 .254.166.752.5 1.496l1.597 3.65 1.086-2.821c.393-1.005.59-1.703.59-2.095 0-.246-.084-.441-.247-.59-.162-.145-.45-.226-.86-.239v-.37h3.124v.37c-.307.034-.558.153-.751.354-.19.203-.514.894-.969 2.07l-2.665 6.912c-.67 1.728-1.168 2.792-1.498 3.191-.459.56-1.031.838-1.727.838-.55 0-.997-.158-1.342-.474-.342-.316-.513-.697-.513-1.142 0-.386.118-.706.356-.957.236-.252.528-.38.872-.38.331 0 .602.107.806.32.2.211.306.543.314.988.005.252.037.415.088.487.053.074.13.111.229.111.16 0 .33-.096.51-.29.267-.279.578-.917.94-1.916l.288-.776z" mask="url(#prefix__b)"/>
    </g>
</svg>
