<svg xmlns="http://www.w3.org/2000/svg" xmlns:xlink="http://www.w3.org/1999/xlink" width="180" height="68" viewBox="0 0 180 68">
    <defs>
        <path id="prefix__a" d="M0.227 0.422L20.55 0.422 20.55 33 0.227 33z"/>
        <path id="prefix__c" d="M0 0.487L24.492 0.487 24.492 31.519 0 31.519z"/>
    </defs>
    <g fill="none" fill-rule="evenodd">
        <g transform="translate(49 35)">
            <mask id="prefix__b" fill="#fff">
                <use xlink:href="#prefix__a"/>
            </mask>
            <path fill="#FBB424" d="M6.389 22.594v.922c0 2.942.812 4.83 4.063 4.83 1.884 0 3.68-1.23 3.68-3.864 0-2.853-1.413-3.907-5.477-5.356C3.18 17.194.656 14.867.656 9.642c0-6.102 3.636-9.22 9.455-9.22 5.476 0 9.454 2.415 9.454 8.43v.878h-5.903c0-2.941-.984-4.654-3.337-4.654-2.78 0-3.51 1.8-3.51 3.644 0 1.932.557 3.118 3.167 4.26l4.75 2.107c4.62 2.064 5.818 4.478 5.818 8.298 0 6.63-3.936 9.615-10.611 9.615-6.974 0-9.712-3.337-9.712-9.132v-1.274H6.39z" mask="url(#prefix__b)"/>
        </g>
        <path fill="#FBB424" d="M78.978 56.32h6.044l-2.979-13.937h-.086l-2.979 13.938zM78.158 37h7.684L94 68h-6.475l-1.424-6.556h-8.202L76.474 68H70l8.158-31zM96 37L114 37 114 42.123 102.497 42.123 102.497 49.417 113.323 49.417 113.323 54.541 102.497 54.541 102.497 68 96 68zM133.56 37L133.56 42.123 122.337 42.123 122.337 49.417 132.899 49.417 132.899 54.541 122.337 54.541 122.337 62.877 134 62.877 134 68 116 68 116 37z"/>
        <path fill="#FFF" d="M155 37L155 42.123 148.158 42.123 148.158 68 141.842 68 141.842 42.123 135 42.123 135 37zM164.934 37L168.958 48.983 169.043 48.983 173.323 37 180 37 172.082 55.8 172.082 68 165.919 68 165.919 55.8 158 37z"/>
        <mask id="prefix__d" fill="#fff">
            <use xlink:href="#prefix__c"/>
        </mask>
        <path fill="#FFF" d="M9.163 19.828h6.167L12.29 5.876h-.088L9.163 19.828zM8.326.488h7.841l8.325 31.031h-6.607l-1.454-6.563H8.06L6.609 31.52H-.001L8.326.487z" mask="url(#prefix__d)"/>
        <path fill="#FFF" d="M31.366 22.46v.933c0 2.98.84 4.892 4.2 4.892 1.946 0 3.802-1.245 3.802-3.913 0-2.89-1.459-3.958-5.659-5.426-5.659-1.957-8.266-4.314-8.266-9.606 0-6.182 3.757-9.34 9.77-9.34 5.659 0 9.77 2.446 9.77 8.539v.89h-6.1c0-2.98-1.017-4.714-3.45-4.714-2.872 0-3.624 1.823-3.624 3.69 0 1.957.575 3.158 3.27 4.315l4.909 2.135C44.762 16.945 46 19.39 46 23.26 46 29.976 41.933 33 35.036 33 27.829 33 25 29.62 25 23.75v-1.29h6.366z"/>
        <path fill="#FBB424" d="M55.181 27.397h2.403c2.961 0 4.98-1.084 4.98-4.688 0-3.604-2.019-4.647-4.722-4.647h-2.661v9.335zm0-13.676h1.76c3.39 0 4.935-1.172 4.935-4.081 0-2.953-1.416-4.038-4.463-4.038H55.18v8.119zM49 1h10.344c5.065 0 8.713 1.91 8.713 7.859 0 3.343-1.588 5.904-4.636 6.773v.086c3.39.478 5.579 3.083 5.579 7.208C69 27.788 66.64 32 59.43 32H49V1zM89.56 1L89.56 6.123 78.337 6.123 78.337 13.417 88.899 13.417 88.899 18.541 78.337 18.541 78.337 26.877 90 26.877 90 32 72 32 72 1z"/>
        <path fill="#FFF" d="M99.366 22.46v.933c0 2.98.84 4.892 4.2 4.892 1.946 0 3.802-1.245 3.802-3.913 0-2.89-1.459-3.958-5.659-5.426-5.659-1.957-8.267-4.314-8.267-9.606 0-6.182 3.758-9.34 9.77-9.34 5.66 0 9.771 2.446 9.771 8.539v.89h-6.1c0-2.98-1.018-4.714-3.45-4.714-2.872 0-3.624 1.823-3.624 3.69 0 1.957.575 3.158 3.272 4.315l4.907 2.135c4.774 2.09 6.012 4.535 6.012 8.405 0 6.716-4.067 9.74-10.964 9.74C95.829 33 93 29.62 93 23.75v-1.29h6.366zM134 1L134 6.123 127.158 6.123 127.158 32 120.842 32 120.842 6.123 114 6.123 114 1zM146.5 28.285c3.673 0 4.277-3.246 4.277-11.785 0-8.495-.604-11.785-4.277-11.785s-4.277 3.29-4.277 11.785c0 8.539.604 11.785 4.277 11.785M146.5 0c9.333 0 10.5 6.85 10.5 16.5S155.833 33 146.5 33c-9.334 0-10.5-6.85-10.5-16.5S137.166 0 146.5 0M165.367 22.46v.933c0 2.98.84 4.892 4.2 4.892 1.946 0 3.802-1.245 3.802-3.913 0-2.89-1.46-3.958-5.66-5.426-5.659-1.957-8.266-4.314-8.266-9.606 0-6.182 3.757-9.34 9.771-9.34 5.66 0 9.77 2.446 9.77 8.539v.89h-6.102c0-2.98-1.016-4.714-3.447-4.714-2.874 0-3.626 1.823-3.626 3.69 0 1.957.575 3.158 3.272 4.315l4.908 2.135c4.775 2.09 6.011 4.535 6.011 8.405 0 6.716-4.066 9.74-10.964 9.74C161.83 33 159 29.62 159 23.75v-1.29h6.367z"/>
    </g>
</svg>
