<svg xmlns="http://www.w3.org/2000/svg" xmlns:xlink="http://www.w3.org/1999/xlink" width="64" height="50" viewBox="0 0 64 50">
    <defs>
        <path id="prefix__a" d="M0 0L43.58 0 43.58 49.805 0 49.805z"/>
    </defs>
    <g fill="none" fill-rule="evenodd" transform="translate(10.339 .097)">
        <mask id="prefix__b" fill="#fff">
            <use xlink:href="#prefix__a"/>
        </mask>
        <path fill="#FFF" d="M37.354 45.136c0 .86-.697 1.557-1.556 1.557H7.782c-.86 0-1.556-.697-1.556-1.557V9.34h31.128v35.797zm-20.7-41.4c.295-.391.755-.622 1.245-.623h7.782c.49.001.95.232 1.245.622l1.868 2.49H14.786l1.868-2.49zm26.148 2.49H32.685l-3.269-4.358C28.535.692 27.151 0 25.681 0h-7.782c-1.47 0-2.854.692-3.736 1.868l-3.268 4.358H.778c-.43 0-.778.348-.778.778V8.56c0 .43.348.779.778.779h2.335v35.797c0 2.579 2.09 4.67 4.67 4.67h28.015c2.578 0 4.669-2.091 4.669-4.67V9.34h2.335c.43 0 .778-.349.778-.779V7.004c0-.43-.349-.778-.778-.778z" mask="url(#prefix__b)"/>
        <path fill="#FDB525" d="M21.022 42.828h1.557c.43 0 .778-.348.778-.778V15.59c0-.43-.348-.778-.778-.778h-1.557c-.43 0-.778.349-.778.779V42.05c0 .43.349.778.778.778m-7.782 0h1.557c.43 0 .778-.348.778-.778V15.59c0-.43-.349-.778-.778-.778H13.24c-.43 0-.778.349-.778.779V42.05c0 .43.348.778.778.778m15.564 0h1.557c.43 0 .778-.348.778-.778V15.59c0-.43-.348-.778-.778-.778h-1.557c-.43 0-.778.349-.778.779V42.05c0 .43.349.778.778.778"/>
    </g>
</svg>
