<svg xmlns="http://www.w3.org/2000/svg" xmlns:xlink="http://www.w3.org/1999/xlink" width="63" height="50" viewBox="0 0 63 50">
    <defs>
        <path id="prefix__a" d="M0 0L37.354 0 37.354 49.805 0 49.805z"/>
    </defs>
    <g fill="none" fill-rule="evenodd" transform="translate(12.451 .097)">
        <path fill="#0D4E80" d="M18.743 9.339c-3.997 0-7.297 3.027-7.733 6.907-.053.464.311.875.778.875h1.569c.384 0 .71-.282.764-.663.322-2.262 2.272-4.007 4.622-4.007 3.034 0 4.67 2.406 4.67 4.67 0 2.005-2.028 3.164-5.366 4.833-.527.264-.86.803-.86 1.392v2.335c0 .43.348.778.778.778h1.556c.43 0 .779-.348.779-.778v-1.376c3.08-1.565 6.225-3.459 6.225-7.184 0-3.826-2.912-7.782-7.782-7.782m-.066 19.455c-1.29 0-2.335 1.045-2.335 2.334 0 1.29 1.045 2.335 2.335 2.335s2.335-1.046 2.335-2.335c0-1.29-1.045-2.334-2.335-2.334"/>
        <mask id="prefix__b" fill="#fff">
            <use xlink:href="#prefix__a"/>
        </mask>
        <path fill="#8A3D67" d="M18.678 46.11c-1.913-2.74-3.608-5.141-5.106-7.266-9.424-13.36-10.46-15-10.46-20.167 0-8.582 6.983-15.564 15.565-15.564s15.564 6.982 15.564 15.564c0 5.166-1.035 6.806-10.459 20.166-1.51 2.142-3.219 4.565-5.104 7.267m0-46.11C8.404 0 0 8.405 0 18.677c0 7.47 2.49 9.65 16.81 30.195.466.622 1.167.933 1.867.933s1.4-.31 1.868-.933c14.319-20.545 16.81-22.724 16.81-30.195C37.354 8.405 28.948 0 18.676 0" mask="url(#prefix__b)"/>
    </g>
</svg>
