<svg xmlns="http://www.w3.org/2000/svg" width="64" height="50" viewBox="0 0 64 50">
    <g fill="none" fill-rule="evenodd">
        <path fill="#FFF" d="M21.79 28.016H34.24c3.434 0 6.226-2.792 6.226-6.226V6.226C40.467 2.792 37.675 0 34.24 0H6.226C2.792 0 0 2.792 0 6.226V21.79c0 3.434 2.792 6.226 6.226 6.226h3.113v5.058c0 .69.564 1.167 1.167 1.167.233 0 .476-.068.69-.233l7.481-4.232 3.113-1.76zM6.226 24.903c-1.712 0-3.113-1.401-3.113-3.113V6.226c0-1.712 1.4-3.113 3.113-3.113H34.24c1.712 0 3.113 1.4 3.113 3.113V21.79c0 1.712-1.4 3.113-3.113 3.113H20.973l-.71.408-7.812 4.417v-4.825H6.226z" transform="translate(4.113 .195)"/>
        <path fill="#FDB525" d="M40.467 18.482h9.338c1.713 0 3.113 1.401 3.113 3.113V37.16c0 1.712-1.4 3.112-3.113 3.112H43.58v4.825l-7.802-4.416-.71-.409H24.903c-1.712 0-3.113-1.4-3.113-3.112V27.82l-3.113 1.76v7.579c0 3.433 2.792 6.225 6.226 6.225h9.338l10.594 5.992c.214.156.457.234.69.234.603 0 1.168-.477 1.168-1.167v-5.059h3.112c3.434 0 6.226-2.792 6.226-6.225V21.595c0-3.434-2.792-6.225-6.226-6.225h-9.338v3.112z" transform="translate(4.113 .195)"/>
    </g>
</svg>
