<svg xmlns="http://www.w3.org/2000/svg" xmlns:xlink="http://www.w3.org/1999/xlink" width="63" height="50" viewBox="0 0 63 50">
    <defs>
        <path id="prefix__a" d="M0 0L37.353 0 37.353 24.903 0 24.903z"/>
    </defs>
    <g fill="none" fill-rule="evenodd">
        <path fill="#2AABE1" d="M12.956 31.751c-.301-1.206-.505-2.442-.505-3.735 0-8.58 6.984-15.565 15.564-15.565h7.782c6.158 0 11.77-2.762 15.535-7.51 1.021 3.143 1.586 6.684 1.586 10.069 0 15.525-9.738 27.5-23.25 28.482-.573.059-1.128.088-1.653.088-6.158 0-11.44-3.619-13.96-8.813l-1.099-3.016zm-1.41 5.078c3.152 5.866 9.339 9.864 16.469 9.864.671 0 1.333-.04 1.984-.107C45.281 45.476 56.03 31.79 56.03 15.01c0-4.883-1.05-9.942-2.898-14.066C52.849.31 52.295 0 51.74 0c-.516 0-1.041.272-1.362.827-3.016 5.243-8.415 8.512-14.582 8.512h-7.782c-10.311 0-18.677 8.365-18.677 18.677 0 2.033.33 3.978.934 5.807l1.274 3.006z" transform="translate(3.113)"/>
        <g transform="translate(3.113) translate(0 25.097)">
            <mask id="prefix__b" fill="#fff">
                <use xlink:href="#prefix__a"/>
            </mask>
            <path fill="#094E80" d="M14.056 9.864c5.039-3.735 12.072-6.75 21.74-6.75.857 0 1.557-.701 1.557-1.557S36.653 0 35.797 0c-10 0-17.413 3.016-22.84 6.849l1.099 3.015zm-3.784-.943C2.849 15.273.135 22.705.087 22.83c-.282.808.146 1.703.953 1.985.769.272 1.693-.107 1.985-.954.038-.117 2.324-6.332 8.521-11.936l-1.274-3.005z" mask="url(#prefix__b)"/>
        </g>
    </g>
</svg>
