<svg xmlns="http://www.w3.org/2000/svg" xmlns:xlink="http://www.w3.org/1999/xlink" width="63" height="50" viewBox="0 0 63 50">
    <defs>
        <path id="prefix__a" d="M22.322.39L.532 19.454c-.418.366-.61.928-.503 1.474.108.546.499.992 1.025 1.172.527.18 1.109.065 1.528-.301l3.644-3.193v17.19c.003 2.578 2.091 4.667 4.67 4.67h18.22c.295-.537.651-1.04 1.061-1.495l1.46-1.618H10.894c-.86 0-1.556-.697-1.556-1.556V16.342c-.01-.132-.036-.263-.08-.389L23.347 3.625l10.545 9.227c.798-.717 1.68-1.333 2.627-1.836L24.37.389c-.294-.256-.659-.384-1.025-.384-.365 0-.73.128-1.024.384zM17.64 15.563c-1.145.003-2.072.931-2.075 2.076v8.3c.004 1.145.93 2.072 2.075 2.075h8.298c1.146 0 2.075-.928 2.079-2.074v-8.3c-.003-1.147-.933-2.076-2.08-2.077H17.64zm1.038 9.339h6.226v-6.226h-6.226v6.226z"/>
        <path id="prefix__c" d="M12.72 3.406c-1.575 2.453-1.515 5.613.152 8.005-1.432.37-2.763.953-4.408 1.693l-.835.37c-2.335 1.021-4.222 2.927-5.341 5.37l-1.149 2.723C.431 23.24.586 25.04 1.55 26.5c.943 1.42 2.528 2.28 4.231 2.295 1.188.002 2.332-.447 3.202-1.255.017.136.036.263.057.4l-1.383 3.783-1.584 4.34-4.613 5.096c-1.818 1.984-1.818 5.097 0 7.09.923 1.028 2.238 1.615 3.619 1.615 1.38 0 2.696-.587 3.619-1.614l4.54-4.98c.936-1.035 1.663-2.24 2.14-3.551l.849-2.324 1.03 1.04c.045.052.076.116.088.185l1.517 7.218c.497 2.363 2.54 4.066 4.857 4.066.396-.001.792-.05 1.176-.146 2.665-.672 4.28-3.365 3.697-6.12l-1.518-7.207c-.267-1.264-.751-2.472-1.432-3.57.178.02.356.03.535.03 1.976 0 3.785-1.227 4.612-3.132.827-1.906.455-4.048-.973-5.604h.004l-1.906-2.052-.848-2.772c-.766-2.54-2.264-4.65-4.201-6.11 2.4-1.654 3.564-4.592 2.95-7.442C25.2 2.93 22.93.731 20.061.212c-.43-.078-.86-.116-1.285-.116-2.42 0-4.717 1.224-6.056 3.31zm1.969 3.89c0-2.257 1.829-4.086 4.085-4.086 2.257 0 4.086 1.83 4.086 4.086 0 2.256-1.83 4.085-4.086 4.085-2.256 0-4.085-1.829-4.085-4.085zM4.007 22.783l1.12-2.647c.809-1.77 2.13-3.103 3.757-3.813 3.325-1.468 4.735-2.218 7.45-2.218 3.529 0 6.642 2.46 7.76 6.128l1.003 3.3c.03.1.083.194.155.271l2.277 2.46c1.37 1.489.089 3.523-1.353 3.523-.429 0-.876-.175-1.265-.604l-2.284-2.46c-.494-.541-.86-1.187-1.07-1.888-1.11-3.648-1.12-3.88-1.703-4.718l-2.034 8.92 4.183 4.223 3.54 11.03c.235 1.098-.388 2.2-1.4 2.451-.139.035-.282.052-.425.05-.915 0-1.626-.74-1.812-1.587l-1.517-7.218c-.13-.655-.451-1.258-.924-1.73l-6.138-6.217c-1.127-1.343-1.526-3.035-1.159-4.64l1.54-6.741c-.876.31-1.761.71-3.445 1.459-.795.355-1.43.994-1.781 1.79l-1.089 2.587c-.359.846-.982 1.197-1.615 1.197-1.216 0-2.452-1.303-1.771-2.908zm-.26 23.366c-.73-.825-.73-2.065 0-2.89l4.541-4.98c.304-.334.54-.724.694-1.148l1.583-4.34.009.012.097.116 2.821 2.85-1.04 2.879c-.337.93-.852 1.786-1.517 2.52l-4.544 4.98c-.334.381-.816.6-1.322.602-.505-.006-.985-.224-1.322-.601z"/>
    </defs>
    <g fill="none" fill-rule="evenodd">
        <path fill="#0276BA" d="M10.895 37.453c-.86 0-1.556-.697-1.556-1.557V16.441c-.01-.133-.036-.263-.08-.39L23.347 3.725l10.545 9.227c.798-.717 1.68-1.334 2.627-1.837L24.37.488c-.587-.513-1.462-.513-2.049 0L.532 19.554c-.419.366-.61.928-.502 1.473.107.546.498.993 1.024 1.173.527.18 1.11.064 1.528-.302l3.644-3.192v17.19c.002 2.578 2.091 4.667 4.67 4.67h18.22c.295-.538.651-1.04 1.061-1.496l1.46-1.617H10.894zm6.744-21.79c-1.145.003-2.072.93-2.075 2.076v8.3c.004 1.145.93 2.072 2.075 2.075h8.298c1.146-.001 2.075-.929 2.079-2.075v-8.3c-.003-1.147-.933-2.075-2.08-2.076H17.64zM18.677 25h6.226v-6.225h-6.226V25z"/>
        <g transform="translate(0 .099)">
            <mask id="prefix__b" fill="#fff">
                <use xlink:href="#prefix__a"/>
            </mask>
            <path fill="#0D4E80" d="M-0.486 50.292L62.739 50.292 62.739 -0.488 -0.486 -0.488z" mask="url(#prefix__b)"/>
        </g>
        <path fill="#2AABE1" d="M60.85 24.155l-1.906-2.052-.848-2.772c-.766-2.54-2.264-4.65-4.2-6.109 2.399-1.655 3.564-4.593 2.95-7.442C56.232 2.93 53.96.733 51.092.213c-2.868-.52-5.766.741-7.341 3.194-1.575 2.453-1.515 5.613.152 8.005-1.432.37-2.763.953-4.408 1.693l-.835.37c-2.335 1.021-4.222 2.927-5.34 5.37l-1.15 2.723c-.708 1.674-.553 3.473.41 4.932.943 1.42 2.528 2.28 4.231 2.295 1.188.002 2.332-.447 3.202-1.255.017.136.036.263.057.4l-1.383 3.783-1.584 4.34-4.613 5.096c-1.818 1.984-1.818 5.097 0 7.091.923 1.027 2.238 1.614 3.62 1.614 1.38 0 2.695-.587 3.618-1.614l4.54-4.98c.936-1.035 1.663-2.24 2.14-3.55l.849-2.325 1.03 1.04c.046.053.076.117.089.185l1.516 7.218c.497 2.364 2.54 4.066 4.857 4.066.397 0 .792-.05 1.176-.146 2.666-.672 4.28-3.365 3.697-6.12l-1.518-7.207c-.267-1.264-.751-2.472-1.432-3.57.178.02.357.03.535.03 1.976 0 3.785-1.226 4.612-3.132.827-1.906.455-4.048-.973-5.604h.004zM49.806 3.211c2.256 0 4.085 1.83 4.085 4.086 0 2.256-1.829 4.086-4.085 4.086-2.257 0-4.086-1.83-4.086-4.086 0-2.256 1.83-4.086 4.086-4.086zM43.483 38.65c-.337.93-.852 1.787-1.517 2.52l-4.544 4.981c-.334.38-.815.6-1.322.601-.505-.006-.985-.224-1.322-.6-.73-.826-.73-2.066 0-2.891l4.541-4.98c.304-.334.54-.724.694-1.147l1.583-4.34.01.01.096.118 2.821 2.85-1.04 2.878zm13.092 5.642c.234 1.098-.39 2.2-1.4 2.452-.14.035-.283.051-.426.049-.915 0-1.626-.74-1.812-1.586l-1.517-7.218c-.13-.656-.451-1.258-.924-1.73l-6.138-6.218c-1.127-1.342-1.526-3.035-1.158-4.64l1.538-6.741c-.875.311-1.76.71-3.444 1.459-.795.356-1.43.994-1.781 1.79l-1.089 2.587c-.359.847-.982 1.197-1.615 1.197-1.215 0-2.452-1.303-1.77-2.908l1.119-2.647c.81-1.77 2.131-3.103 3.758-3.813 3.324-1.468 4.734-2.218 7.449-2.218 3.53 0 6.642 2.46 7.76 6.129l1.004 3.298c.029.102.082.195.154.273l2.277 2.46c1.371 1.488.089 3.522-1.353 3.522-.429 0-.876-.175-1.265-.604l-2.284-2.46c-.494-.541-.86-1.186-1.07-1.888-1.11-3.648-1.119-3.88-1.703-4.718l-2.034 8.92 4.183 4.223 3.541 11.03z"/>
        <g transform="translate(31.031 .001)">
            <mask id="prefix__d" fill="#fff">
                <use xlink:href="#prefix__c"/>
            </mask>
            <path fill="#2AABE1" d="M-31.518 50.389L31.708 50.389 31.708 -0.39 -31.518 -0.39z" mask="url(#prefix__d)"/>
        </g>
    </g>
</svg>
