<svg xmlns="http://www.w3.org/2000/svg" xmlns:xlink="http://www.w3.org/1999/xlink" width="63" height="50" viewBox="0 0 63 50">
    <defs>
        <path id="prefix__a" d="M0 0L40.467 0 40.467 32.685 0 32.685z"/>
    </defs>
    <g fill="none" fill-rule="evenodd">
        <path fill="#094E80" d="M24.37 21.247c.123-.53.29-1.05.503-1.551-.069-.578-.556-1.015-1.138-1.019h-3.89c-.645 0-1.168.523-1.168 1.167v3.891c0 .645.523 1.168 1.167 1.168h3.682l.845-3.656zM14.398 9.34h-3.891c-.645 0-1.167.522-1.167 1.167v3.89c0 .646.522 1.168 1.167 1.168h3.89c.646 0 1.168-.522 1.168-1.167v-3.891c0-.645-.522-1.167-1.167-1.167zM54.086 34.24c-1.075 0-1.946.871-1.946 1.946 0 1.074.871 1.945 1.946 1.945 1.074 0 1.945-.87 1.945-1.945 0-1.075-.87-1.946-1.945-1.946zm-24.125 0c-1.074 0-1.945.871-1.945 1.946 0 1.074.87 1.945 1.945 1.945 1.075 0 1.946-.87 1.946-1.945 0-1.075-.871-1.946-1.946-1.946zm-15.564-6.225h-3.891c-.645 0-1.167.522-1.167 1.167v3.89c0 .646.522 1.168 1.167 1.168h3.89c.646 0 1.168-.522 1.168-1.167v-3.891c0-.645-.522-1.167-1.167-1.167zm0-9.339h-3.891c-.645 0-1.167.523-1.167 1.167v3.891c0 .645.522 1.168 1.167 1.168h3.89c.646 0 1.168-.523 1.168-1.168v-3.89c0-.645-.522-1.168-1.167-1.168zm5.447-9.338c-.644 0-1.167.522-1.167 1.167v3.89c0 .646.523 1.168 1.167 1.168h3.891c.645 0 1.168-.522 1.168-1.167v-3.891c0-.645-.523-1.167-1.168-1.167h-3.89zm11.284-4.67v9.339h3.113V4.669C34.241 2.09 32.151 0 29.572 0H4.669C2.09 0 0 2.09 0 4.67v38.132c0 .43.348.778.778.778h1.557c.43 0 .778-.349.778-.778V4.669c0-.86.697-1.556 1.556-1.556h24.903c.86 0 1.556.697 1.556 1.556z" transform="translate(0 1.07)"/>
        <g transform="translate(0 1.07) translate(21.79 16.245)">
            <mask id="prefix__b" fill="#fff">
                <use xlink:href="#prefix__a"/>
            </mask>
            <path fill="#2AABE1" d="M37.354 23.52c-.001.763-.62 1.382-1.383 1.383H4.496c-.763-.001-1.382-.62-1.383-1.384v-5.36c.003-2.292 1.86-4.149 4.15-4.151h25.94c2.292.002 4.148 1.86 4.151 4.15v5.361zM8.647 5.524c.326-1.412 1.584-2.412 3.033-2.412h16.837c1.45 0 2.707 1 3.034 2.412l1.238 5.37H7.408l1.239-5.37zm27.481 5.996l-1.544-6.695C33.94 1.996 31.42-.01 28.517 0H11.68C8.777-.01 6.256 1.995 5.614 4.826L4.03 11.689C1.654 12.883 0 15.32 0 18.159v5.36c.007 1.943 1.264 3.66 3.113 4.256v3.353c0 .86.697 1.557 1.556 1.557h1.557c.86 0 1.556-.697 1.556-1.557v-3.112h24.903v3.112c0 .86.697 1.557 1.556 1.557h1.557c.86 0 1.556-.697 1.556-1.557v-3.353c1.85-.595 3.106-2.313 3.113-4.256v-5.36c-.005-2.876-1.706-5.479-4.339-6.638z" mask="url(#prefix__b)"/>
        </g>
    </g>
</svg>
